<?xml version="1.0" standalone="no"?>
<!DOCTYPE svg PUBLIC "-//W3C//DTD SVG 1.1//EN" "http://www.w3.org/Graphics/SVG/1.1/DTD/svg11.dtd" >
<svg xmlns="http://www.w3.org/2000/svg" xmlns:xlink="http://www.w3.org/1999/xlink" version="1.1">
<metadata></metadata>
<defs>
<font id="webfontregular" horiz-adv-x="1311" >
<font-face units-per-em="2048" ascent="1638" descent="-410" />
<missing-glyph horiz-adv-x="573" />
<glyph horiz-adv-x="0" />
<glyph horiz-adv-x="682" />
<glyph unicode=" "  horiz-adv-x="573" />
<glyph unicode="&#x09;" horiz-adv-x="573" />
<glyph unicode="&#xa0;" horiz-adv-x="573" />
<glyph unicode="!" horiz-adv-x="573" d="M115 143q0 71 50 121t121 50t121.5 -50t50.5 -121q0 -70 -50.5 -120.5t-121.5 -50.5t-121 50t-50 121zM148 433v1075h276v-1075h-276z" />
<glyph unicode="&#x22;" horiz-adv-x="737" d="M31 1508h267l-56 -504h-156zM442 1508h267l-56 -504h-156z" />
<glyph unicode="#" horiz-adv-x="1229" d="M61 479v199h256l30 188h-223v199h251l65 443h195l-62 -443h191l65 443h201l-65 -443h202v-199h-231l-26 -188h200v-199h-231l-71 -479h-201l70 479h-191l-70 -479h-200l70 479h-225zM516 678h189l31 188h-194z" />
<glyph unicode="$" horiz-adv-x="1147" d="M70 213l190 195q183 -195 354 -195q87 0 149.5 60.5t62.5 142.5q0 69 -40 121q-41 52 -158 106q-238 110 -322 174.5t-125.5 145t-41.5 171.5q0 151 110 258.5t278 115.5v100h188v-113q97 -23 164.5 -62t159.5 -132l-193 -188q-132 136 -261 136q-76 0 -123.5 -40.5 t-47.5 -93.5q0 -45 42 -89q41 -45 166 -96q222 -92 304 -157t126 -156t44 -204t-47 -209t-121 -152t-213 -85v-267h-188v261q-131 15 -223 66q-126 70 -234 186z" />
<glyph unicode="%" horiz-adv-x="1761" d="M42 1154q0 94 46 174.5t129.5 130t165.5 49.5q62 0 171 -24q193 -42 340 -42q133 0 247.5 23.5t210.5 70.5h202l-1166 -1636h-202l997 1405q-90 -15 -169 -22.5t-146 -7.5q-69 0 -146 7q22 -70 22 -127q0 -146 -101.5 -248t-247.5 -102q-147 0 -250 102t-103 247z M224 1157q0 -70 49.5 -119.5t119.5 -49.5t119.5 49.5t49.5 119.5t-49.5 119t-119.5 49t-119.5 -49.5t-49.5 -118.5zM1017 311q0 146 102.5 249t248.5 103q145 0 248 -103t103 -249q0 -145 -103 -248t-248 -103q-146 0 -248.5 103t-102.5 248zM1197 312q0 -70 49.5 -120 t120.5 -50q70 0 119.5 50t49.5 120t-49.5 120t-119.5 50q-71 0 -120.5 -50t-49.5 -120z" />
<glyph unicode="&#x26;" horiz-adv-x="1393" d="M97 316q0 117 59 221t202 215q-141 191 -141 338q0 109 94 215t265 106q173 0 265.5 -105t92.5 -212q0 -84 -42.5 -161t-195.5 -228q179 -211 231 -263q32 24 163 136l167 -191l-76 -69l-75 -68l236 -250h-339l-97 100q-232 -137 -431 -137q-169 0 -273.5 99t-104.5 254z M358 331q0 -43 40.5 -79t102.5 -36q89 0 223 78q-77 76 -217 252q-149 -123 -149 -215zM487 1066q0 -72 71 -164q111 95 111 168q0 38 -25 62t-66 24q-38 0 -64.5 -27t-26.5 -63z" />
<glyph unicode="'" horiz-adv-x="451" d="M92 1508h266l-55 -504h-156z" />
<glyph unicode="(" horiz-adv-x="778" d="M93 571q0 294 67 515t220 450h346q-178 -201 -265.5 -436t-87.5 -537q0 -327 97 -575q76 -191 256 -414h-346q-160 254 -223.5 475.5t-63.5 521.5z" />
<glyph unicode=")" horiz-adv-x="778" d="M53 -426q178 201 265.5 435.5t87.5 537.5q0 327 -97 574q-76 191 -256 415h346q160 -254 223.5 -475.5t63.5 -521.5q0 -294 -67 -515t-220 -450h-346z" />
<glyph unicode="*" horiz-adv-x="901" d="M52 1035l306 87l-306 85l133 223l223 -223l-77 301h254l-79 -301l226 213l117 -220l-305 -78l305 -87l-132 -217l-218 217l77 -300h-245l77 300l-223 -217z" />
<glyph unicode="+" horiz-adv-x="1229" d="M115 610v250h375v375h250v-375h374v-250h-374v-374h-250v374h-375z" />
<glyph unicode="," horiz-adv-x="573" d="M81 -178l188 455l195 -98l-247 -422z" />
<glyph unicode="-" horiz-adv-x="860" d="M176 415v254h508v-254h-508z" />
<glyph unicode="." horiz-adv-x="573" d="M130 129q0 65 46 110.5t111 45.5t111 -45.5t46 -110.5t-46 -111t-111 -46t-111 46t-46 111z" />
<glyph unicode="/" horiz-adv-x="942" d="M44 -262l661 1775h194l-662 -1775h-193z" />
<glyph unicode="0" horiz-adv-x="1147" d="M57 721q0 405 125 587q139 200 387 200q161 0 277.5 -79t180 -241.5t63.5 -452.5q0 -293 -64.5 -456t-173.5 -239.5t-275 -76.5t-279 77t-177 234t-64 447zM337 715q0 -279 66.5 -385.5t172.5 -106.5q102 0 162 101q73 122 73 408q0 290 -65.5 400t-169.5 110 q-71 0 -126 -45.5t-84 -156.5t-29 -325z" />
<glyph unicode="1" horiz-adv-x="1147" d="M175 1208l162 263h419v-1471h-278v1208h-303z" />
<glyph unicode="2" horiz-adv-x="1147" d="M44 0v134l455 464q165 167 219.5 268.5t54.5 183.5q0 85 -56.5 140.5t-145.5 55.5q-90 0 -150 -67t-64 -182h-273q11 238 149.5 374.5t355.5 136.5q134 0 236.5 -56.5t164 -163t61.5 -216.5q0 -131 -74.5 -282t-272.5 -357l-165 -174h524v-259h-1019z" />
<glyph unicode="3" horiz-adv-x="1147" d="M61 445h277q18 -114 79.5 -169.5t155.5 -55.5q98 0 162.5 63t64.5 154q0 100 -87 169t-251 71v240q101 8 150.5 31.5t77 64.5t27.5 87q0 60 -42 99.5t-110 39.5q-60 0 -109 -36.5t-67 -94.5h-269q21 163 117 262q134 138 337 138q181 0 303.5 -115t122.5 -273 q0 -98 -53.5 -179t-155.5 -131q134 -40 209.5 -139.5t75.5 -234.5q0 -198 -146 -335.5t-372 -137.5q-214 0 -349 129.5t-148 352.5z" />
<glyph unicode="4" horiz-adv-x="1147" d="M42 302v259l636 947h280v-947h131v-259h-131v-302h-274v302h-642zM348 561h336v493z" />
<glyph unicode="5" horiz-adv-x="1147" d="M48 363h294q34 -69 89.5 -104.5t122.5 -35.5q93 0 158 67t65 172q0 102 -60.5 167.5t-146.5 65.5q-46 0 -90.5 -23t-87.5 -69l-228 51l178 817h689v-258h-480l-60 -268q25 7 49 10.5t46 3.5q200 0 332.5 -136.5t132.5 -349.5q0 -215 -146.5 -362.5t-356.5 -147.5 q-188 0 -323 107t-177 293z" />
<glyph unicode="6" horiz-adv-x="1147" d="M101 419q0 68 20.5 137t94.5 212l378 740l238 -119l-257 -500q187 0 318 -134t131 -333q0 -192 -134.5 -325.5t-324.5 -133.5q-199 0 -331.5 138.5t-132.5 317.5zM375 426q0 -85 55.5 -143t129.5 -58q78 0 134 57t56 144q0 85 -54.5 141.5t-136.5 56.5q-78 0 -131 -56.5 t-53 -141.5z" />
<glyph unicode="7" horiz-adv-x="1147" d="M123 1208v263h965v-147l-664 -1361l-237 115l552 1130h-616z" />
<glyph unicode="8" horiz-adv-x="1147" d="M63 415q0 116 50.5 211.5t151.5 170.5q-66 67 -99.5 142.5t-33.5 159.5q0 115 55.5 209.5t155.5 147t231 52.5q129 0 227 -53t154.5 -150.5t56.5 -209.5q0 -79 -29.5 -146.5t-107.5 -151.5q100 -64 154.5 -164.5t54.5 -217.5q0 -127 -63.5 -235t-170.5 -162.5t-273 -54.5 q-178 0 -283 52.5t-168 159t-63 240.5zM337 440q0 -89 65 -150.5t171 -61.5q107 0 170.5 57.5t63.5 148.5t-66 152.5t-165 61.5q-101 0 -170 -61.5t-69 -146.5zM407 1076q0 -71 47 -119t116 -48q71 0 116.5 47t45.5 122q0 71 -46 115.5t-121 44.5q-69 0 -113.5 -45.5 t-44.5 -116.5z" />
<glyph unicode="9" horiz-adv-x="1147" d="M123 1048q0 193 134.5 326.5t324.5 133.5q199 0 331.5 -138.5t132.5 -318.5q0 -68 -20.5 -136.5t-94.5 -211.5l-378 -740l-238 118l257 500q-187 0 -318 134t-131 333zM397 1045q0 -85 54.5 -142t136.5 -57q78 0 131 57t53 141q0 86 -55.5 144t-129.5 58 q-78 0 -134 -57.5t-56 -143.5z" />
<glyph unicode=":" horiz-adv-x="573" d="M130 129q0 65 46 110.5t111 45.5t111 -45.5t46 -110.5t-46 -111t-111 -46t-111 46t-46 111zM130 959q0 65 46 111t111 46t111 -46t46 -111q0 -64 -46 -110t-111 -46t-111 45.5t-46 110.5z" />
<glyph unicode=";" horiz-adv-x="573" d="M80 -177l191 455l191 -100l-245 -421zM130 959q0 65 46 111t111 46t111 -46t46 -111t-46 -110.5t-111 -45.5t-111 45.5t-46 110.5z" />
<glyph unicode="&#x3c;" horiz-adv-x="1229" d="M115 624v222l999 508v-249l-712 -370l712 -369v-250z" />
<glyph unicode="=" horiz-adv-x="1229" d="M115 396v250h999v-250h-999zM115 824v250h999v-250h-999z" />
<glyph unicode="&#x3e;" horiz-adv-x="1229" d="M115 116v250l713 369l-713 370v249l999 -508v-222z" />
<glyph unicode="?" horiz-adv-x="1147" d="M100 1091q-2 193 132 319t353 126q141 0 240 -52t158.5 -150t59.5 -206q0 -59 -19 -116t-60 -117q-24 -35 -115 -118q-87 -79 -109 -111.5t-37 -86.5t-19 -150h-271l-1 45q0 134 49 243.5t159 205.5q106 93 128 128t22 82q0 64 -53.5 108.5t-143.5 44.5q-92 0 -151 -54.5 t-60 -140.5h-262zM382 144q0 71 50 121t121 50q73 0 124.5 -50t51.5 -121t-51 -121.5t-123 -50.5t-122.5 50.5t-50.5 121.5z" />
<glyph unicode="@" horiz-adv-x="1515" d="M8 754q0 214 104.5 398t285 286t396.5 102q300 0 506.5 -193t206.5 -449q0 -188 -86.5 -323.5t-235.5 -211.5q-114 -58 -191 -58q-58 0 -93 31q-27 22 -29 76q-88 -97 -214 -97q-142 0 -236.5 101t-94.5 269q0 185 116 330.5t308 145.5q79 0 141 -32.5t106 -98.5l21 105 h196l-99 -583q-10 -62 -10 -70q0 -11 10.5 -20.5t24.5 -9.5q35 0 94.5 48.5t97 140t37.5 200.5q0 162 -71 286t-204 195t-305 71q-181 0 -325 -80.5t-227 -228t-83 -324.5q0 -181 84 -328t235 -229t338 -82q110 0 208 41t208 139h191q-109 -135 -193.5 -196.5t-196.5 -96.5 t-233 -35q-214 0 -397 104.5t-287 284.5t-104 392zM573 705q0 -81 46 -130t120 -49q87 0 144 71.5t57 161.5q0 78 -46.5 127.5t-116.5 49.5q-82 0 -143 -67.5t-61 -163.5z" />
<glyph unicode="A" horiz-adv-x="1515" d="M49 0l567 1471h284l566 -1471h-291l-115 303h-600l-120 -303h-291zM564 576h391l-195 505z" />
<glyph unicode="B" horiz-adv-x="1188" d="M168 0v1471h231q201 0 294 -26q132 -35 210 -130t78 -224q0 -84 -35.5 -152.5t-115.5 -128.5q134 -63 196 -157.5t62 -223.5q0 -124 -64 -226t-165 -152.5t-279 -50.5h-412zM448 267h70q174 0 234.5 44t60.5 128q0 95 -71 150t-236 55h-58v-377zM448 894h61 q102 0 151.5 43t49.5 117q0 69 -47 109.5t-143 40.5h-72v-310z" />
<glyph unicode="C" horiz-adv-x="1597" d="M95 738q0 220 99.5 391t285 275t399.5 104q182 0 350.5 -77t290.5 -219l-196 -187q-200 211 -450 211q-211 0 -355.5 -144t-144.5 -355q0 -147 64 -261t181 -179t260 -65q122 0 223 45.5t222 165.5l190 -198q-163 -159 -308 -220.5t-331 -61.5q-343 0 -561.5 217.5 t-218.5 557.5z" />
<glyph unicode="D" horiz-adv-x="1434" d="M169 0v1471h332q321 0 477 -79.5t257 -258.5t101 -418q0 -170 -56.5 -312.5t-156 -236.5t-215.5 -130t-402 -36h-337zM448 274h130q192 0 278.5 44t141.5 148t55 256q0 234 -131 363q-118 116 -379 116h-95v-927z" />
<glyph unicode="E" horiz-adv-x="1065" d="M169 0v1471h803v-274h-525v-266h525v-269h-525v-387h525v-275h-803z" />
<glyph unicode="F" horiz-adv-x="983" d="M172 0v1471h730v-273h-453v-267h453v-269h-453v-662h-277z" />
<glyph unicode="G" horiz-adv-x="1720" d="M102 743q0 292 193 508q229 257 596 257q192 0 359 -71q141 -60 276 -206l-197 -195q-187 198 -436 198q-217 0 -363.5 -144t-146.5 -350q0 -213 152 -361t375 -148q145 0 244.5 61t160.5 191h-426v263h740l2 -62q0 -193 -100 -366t-259 -264t-373 -91 q-229 0 -408.5 99.5t-284 283.5t-104.5 397z" />
<glyph unicode="H" horiz-adv-x="1393" d="M167 0v1471h284v-555h492v555h283v-1471h-283v645h-492v-645h-284z" />
<glyph unicode="I" horiz-adv-x="573" d="M148 0v1471h278v-1471h-278z" />
<glyph unicode="J" horiz-adv-x="983" d="M38 176l202 189q67 -76 114 -102t91 -26q45 0 67 38t22 167v1029h281v-976q0 -233 -37 -327t-122 -149.5t-204 -55.5q-243 0 -414 213z" />
<glyph unicode="K" horiz-adv-x="1270" d="M170 0v1471h283v-506l399 506h337l-514 -656l564 -815h-332l-454 653v-653h-283z" />
<glyph unicode="L" horiz-adv-x="901" d="M168 0v1471h280v-1204h408v-267h-688z" />
<glyph unicode="M" horiz-adv-x="1843" d="M56 0l254 1471h274l340 -1026l345 1026h270l248 -1471h-270l-158 929l-313 -929h-247l-309 929l-161 -929h-273z" />
<glyph unicode="N" horiz-adv-x="1515" d="M169 0v1471h268l631 -968v968h280v-1471h-269l-630 965v-965h-280z" />
<glyph unicode="O" horiz-adv-x="1720" d="M96 736q0 211 102 388t280.5 280.5t384.5 103.5q312 0 536.5 -226t224.5 -551q0 -322 -221.5 -545t-537.5 -223q-331 0 -550 229t-219 544zM378 731q0 -244 175 -386q136 -111 312 -111q199 0 339 144t140 355q0 210 -141 355.5t-343 145.5q-204 0 -343 -142t-139 -361z " />
<glyph unicode="P" horiz-adv-x="1147" d="M167 0v1471h297q241 0 347.5 -44.5t168 -144t61.5 -238.5q0 -154 -80.5 -256t-218.5 -142q-81 -23 -295 -23v-623h-280zM447 896h89q105 0 146 15t64.5 49.5t23.5 83.5q0 85 -66 124q-48 29 -178 29h-79v-301z" />
<glyph unicode="Q" horiz-adv-x="1720" d="M96 736q0 211 102 387.5t280.5 280.5t383.5 104q313 0 537.5 -226t224.5 -551q0 -299 -194 -516l256 -331h-332l-130 167q-161 -88 -359 -88q-331 0 -550 228.5t-219 544.5zM378 731q0 -244 175 -386q137 -111 311 -111q100 0 188 39l-263 339h334l132 -171 q89 132 89 292q0 209 -141 355t-341 146q-206 0 -345 -142t-139 -361z" />
<glyph unicode="R" horiz-adv-x="1188" d="M187 0v1471h297q244 0 347.5 -43.5t166.5 -144.5t63 -239q0 -145 -69.5 -242.5t-209.5 -147.5l348 -654h-306l-331 623h-26v-623h-280zM467 896h88q134 0 184.5 35t50.5 116q0 48 -25 83.5t-67 51t-154 15.5h-77v-301z" />
<glyph unicode="S" horiz-adv-x="1065" d="M41 282l235 142q106 -195 244 -195q72 0 121 42t49 97q0 50 -37 100t-163 153q-240 196 -310 302.5t-70 212.5q0 153 116.5 262.5t287.5 109.5q110 0 209.5 -51t215.5 -186l-207 -183q-109 152 -222 152q-55 0 -90 -29.5t-35 -66.5t25 -70q34 -44 205 -189 q160 -134 194 -169q85 -86 120.5 -164.5t35.5 -171.5q0 -181 -125 -299t-326 -118q-157 0 -273.5 77t-199.5 242z" />
<glyph unicode="T" horiz-adv-x="860" d="M23 1195v276h813v-276h-268v-1195h-284v1195h-261z" />
<glyph unicode="U" d="M158 594v877h281v-952q0 -123 21.5 -174t71 -81.5t119.5 -30.5q74 0 127.5 34t74 86.5t20.5 200.5v917h281v-877q0 -222 -25 -308t-95.5 -166t-162.5 -118.5t-214 -38.5q-160 0 -278.5 73.5t-169.5 184t-51 373.5z" />
<glyph unicode="V" horiz-adv-x="1434" d="M56 1471h288l370 -1045l375 1045h288l-530 -1471h-270z" />
<glyph unicode="W" horiz-adv-x="1843" d="M56 1471h276l212 -939l263 939h233l266 -939l210 939h276l-331 -1471h-269l-271 951l-266 -951h-266z" />
<glyph unicode="X" horiz-adv-x="1393" d="M41 0l497 759l-466 712h315l308 -471l311 471h315l-468 -712l497 -759h-315l-340 517l-337 -517h-317z" />
<glyph unicode="Y" horiz-adv-x="1270" d="M63 1471h301l274 -528l272 528h297l-430 -834v-637h-282v637z" />
<glyph unicode="Z" horiz-adv-x="1024" d="M47 0l523 1194h-480v277h890l-525 -1202h491v-269h-899z" />
<glyph unicode="[" horiz-adv-x="655" d="M169 -398v1906h438v-255h-162v-1397h162v-254h-438z" />
<glyph unicode="\" d="M228 1513h193l661 -1775h-193z" />
<glyph unicode="]" horiz-adv-x="655" d="M48 -143h162v1397h-162v254h438v-1906h-438v255z" />
<glyph unicode="^" horiz-adv-x="1229" d="M109 366l388 1105h232l390 -1105h-242l-262 748l-263 -748h-243z" />
<glyph unicode="_" horiz-adv-x="1024" d="M-12 -154h1048v-102h-1048v102z" />
<glyph unicode="`" horiz-adv-x="860" d="M59 1679h323l239 -392h-196z" />
<glyph unicode="a" horiz-adv-x="1352" d="M88 542q0 252 149 413t362 161q98 0 184 -37t159 -111v120h272v-1088h-272v115q-80 -76 -160.5 -109.5t-174.5 -33.5q-211 0 -365 163.5t-154 406.5zM360 545q0 -141 85.5 -232t210.5 -91q129 0 214 89.5t85 234.5q0 142 -85 230t-215 88q-127 0 -211 -89.5t-84 -229.5z " />
<glyph unicode="b" horiz-adv-x="1352" d="M138 0v1508h271v-540q74 74 160 111t184 37q213 0 362 -161t149 -413q0 -243 -154 -406.5t-365 -163.5q-94 0 -175 33.5t-161 109.5v-115h-271zM397 546q0 -145 85 -234.5t214 -89.5q125 0 210.5 91t85.5 232q0 140 -84 229.5t-212 89.5q-129 0 -214 -88t-85 -230z" />
<glyph unicode="c" d="M85 540q0 158 79 291t220.5 209t316.5 76q162 0 291 -64.5t211 -183.5l-227 -125q-64 67 -126.5 93t-146.5 26q-153 0 -247.5 -91.5t-94.5 -234.5q0 -139 91 -227t239 -88q183 0 285 125l215 -147q-175 -227 -494 -227q-287 0 -449.5 170t-162.5 398z" />
<glyph unicode="d" horiz-adv-x="1352" d="M88 542q0 252 149 413t362 161q98 0 184 -37t159 -111v540h272v-1508h-272v115q-80 -76 -160.5 -109.5t-174.5 -33.5q-211 0 -365 163.5t-154 406.5zM360 545q0 -141 85.5 -232t210.5 -91q129 0 214 89.5t85 234.5q0 142 -85 230t-215 88q-127 0 -211 -89.5t-84 -229.5z " />
<glyph unicode="e" d="M87 538q0 249 160.5 413.5t402.5 164.5q257 0 418 -164.5t161 -434.5l-1 -52h-877q19 -116 101.5 -184.5t210.5 -68.5q153 0 263 107l230 -108q-86 -122 -206 -180.5t-285 -58.5q-256 0 -417 161.5t-161 404.5zM363 680h591q-27 91 -106.5 148t-184.5 57q-114 0 -200 -64 q-54 -40 -100 -141z" />
<glyph unicode="f" horiz-adv-x="573" d="M8 856v232h97q1 214 7 253q11 90 75.5 142.5t182.5 52.5q85 0 192 -39v-208q-59 17 -97 17q-48 0 -70 -20q-16 -15 -16 -62l-1 -136h173v-232h-173v-856h-273v856h-97z" />
<glyph unicode="g" horiz-adv-x="1352" d="M90 -80h301q40 -46 103 -69.5t149 -23.5q110 0 177 34t94.5 88t27.5 186q-72 -72 -151 -103.5t-179 -31.5q-219 0 -370 158t-151 400q0 259 160 416q145 142 346 142q94 0 177.5 -34.5t167.5 -113.5v120h272v-932q0 -276 -111 -406q-149 -176 -449 -176q-160 0 -269 40 t-184 117.5t-111 188.5zM362 557q0 -136 86 -223t216 -87q127 0 209.5 85t82.5 223q0 136 -83 221t-214 85q-129 0 -213 -86.5t-84 -217.5z" />
<glyph unicode="h" horiz-adv-x="1229" d="M139 0v1508h271v-530q80 69 161 103.5t164 34.5q162 0 273 -112q95 -97 95 -285v-719h-269v477q0 189 -18 256t-61.5 100t-107.5 33q-83 0 -142.5 -55t-82.5 -150q-12 -49 -12 -224v-437h-271z" />
<glyph unicode="i" horiz-adv-x="491" d="M71 1362q0 72 51 123t123 51t123.5 -52t51.5 -126q0 -73 -51 -124.5t-122 -51.5q-73 0 -124.5 52.5t-51.5 127.5zM108 0v1088h274v-1088h-274z" />
<glyph unicode="j" horiz-adv-x="532" d="M-87 -170q64 -31 113 -31q52 0 78 31t26 114v1144h273v-1124q0 -155 -30.5 -231.5t-96.5 -117.5t-159 -41q-82 0 -204 41v215zM93 1362q0 72 50.5 123t122.5 51q73 0 124.5 -52t51.5 -126q0 -73 -51 -125t-122 -52q-73 0 -124.5 53t-51.5 128z" />
<glyph unicode="k" horiz-adv-x="1188" d="M140 0v1508h273v-869l402 449h342l-468 -522l525 -566h-339l-462 501v-501h-273z" />
<glyph unicode="l" horiz-adv-x="491" d="M109 0v1508h273v-1508h-273z" />
<glyph unicode="m" horiz-adv-x="1925" d="M136 0v1088h274v-125q70 77 155.5 115t186.5 38q102 0 184 -50t132 -146q65 96 159.5 146t206.5 50q116 0 204 -54t126.5 -141t38.5 -283v-638h-275v552q0 185 -46 250.5t-138 65.5q-70 0 -125.5 -40t-82.5 -110.5t-27 -226.5v-491h-275v527q0 146 -21.5 211.5 t-64.5 97.5t-104 32q-68 0 -123.5 -40.5t-83 -113.5t-27.5 -230v-484h-274z" />
<glyph unicode="n" horiz-adv-x="1229" d="M138 0v1088h272v-111q93 78 168.5 108.5t154.5 30.5q162 0 275 -113q95 -96 95 -284v-719h-270v477q0 195 -17.5 259t-61 97.5t-107.5 33.5q-83 0 -142.5 -55.5t-82.5 -153.5q-12 -51 -12 -221v-437h-272z" />
<glyph unicode="o" d="M85 543q0 255 187 425q164 148 377 148q154 0 289.5 -77t211.5 -209t76 -285q0 -154 -76.5 -288t-208.5 -209.5t-291 -75.5q-234 0 -399.5 166.5t-165.5 404.5zM357 544q0 -142 83.5 -230t211.5 -88t213 89t85 229t-83.5 227.5t-213.5 87.5q-127 0 -211.5 -88.5 t-84.5 -226.5z" />
<glyph unicode="p" horiz-adv-x="1352" d="M138 -398v1486h271v-120q74 74 160 111t184 37q213 0 362 -161t149 -413q0 -243 -154 -406.5t-365 -163.5q-94 0 -175 33.5t-161 109.5v-513h-271zM397 546q0 -145 85 -234.5t214 -89.5q125 0 210.5 91t85.5 232q0 140 -84 229.5t-212 89.5q-129 0 -214 -88t-85 -230z " />
<glyph unicode="q" horiz-adv-x="1352" d="M88 542q0 252 149 413t362 161q98 0 184 -37t159 -111v120h272v-1486h-272v513q-80 -76 -160.5 -109.5t-174.5 -33.5q-211 0 -365 163.5t-154 406.5zM360 545q0 -141 85.5 -232t210.5 -91q129 0 214 89.5t85 234.5q0 142 -85 230t-215 88q-127 0 -211 -89.5t-84 -229.5z " />
<glyph unicode="r" horiz-adv-x="655" d="M74 0v1088h234v-137q38 81 101 123t138 42q53 0 111 -28l-85 -235q-48 24 -79 24q-63 0 -106.5 -78t-43.5 -306l1 -53v-440h-271z" />
<glyph unicode="s" horiz-adv-x="901" d="M52 158l168 183q48 -56 112.5 -90.5t114.5 -34.5q54 0 87 26t33 60q0 63 -119 123l-92 46q-264 133 -264 333q0 129 99.5 220.5t254.5 91.5q106 0 199.5 -46.5t158.5 -133.5l-169 -169q-103 102 -187 102q-46 0 -72 -19.5t-26 -48.5q0 -22 16.5 -40.5t81.5 -50.5l100 -50 q158 -78 217 -159t59 -190q0 -145 -106.5 -242t-285.5 -97q-238 0 -380 186z" />
<glyph unicode="t" horiz-adv-x="614" d="M31 853v235h140v401h272v-401h162v-235h-162v-853h-272v853h-140z" />
<glyph unicode="u" horiz-adv-x="1229" d="M137 635v453h276v-524q0 -153 21 -212.5t67.5 -92.5t114.5 -33t115.5 32.5t70.5 95.5q17 47 17 201v533h274v-461q0 -285 -45 -390q-55 -128 -162 -196.5t-272 -68.5q-179 0 -289.5 80t-155.5 223q-32 99 -32 360z" />
<glyph unicode="v" horiz-adv-x="1147" d="M21 1088h278l275 -642l274 642h277l-463 -1088h-177z" />
<glyph unicode="w" horiz-adv-x="1638" d="M17 1088h267l219 -619l236 619h163l231 -612l219 612h269l-397 -1088h-173l-232 620l-239 -620h-171z" />
<glyph unicode="x" horiz-adv-x="1147" d="M1 0l412 573l-373 515h317l213 -297l216 297h314l-372 -515l418 -573h-317l-259 357l-256 -357h-313z" />
<glyph unicode="y" horiz-adv-x="1188" d="M17 1088h279l283 -683l312 683h280l-682 -1486h-282l224 479z" />
<glyph unicode="z" horiz-adv-x="942" d="M16 0l492 857h-417v231h835l-490 -857h462v-231h-882z" />
<glyph unicode="{" horiz-adv-x="696" d="M13 390v240q89 4 131.5 35t65 97t22.5 223q0 198 18 270.5t57.5 116t116 71.5t220.5 28h53v-240q-107 0 -140 -11.5t-48.5 -37.5t-15.5 -96q0 -126 -12 -281q-8 -101 -55 -181q-35 -59 -121 -115q73 -42 116 -106.5t57 -163.5q6 -43 14 -280q3 -87 11 -108 q13 -31 48.5 -47t145.5 -16v-239h-53q-145 0 -215 23.5t-114 69t-63.5 115t-19.5 239.5q0 190 -20.5 256.5t-64 99.5t-134.5 38z" />
<glyph unicode="|" horiz-adv-x="1229" d="M536 -398v1906h158v-1906h-158z" />
<glyph unicode="}" horiz-adv-x="696" d="M-1 -212q107 0 139.5 11.5t48.5 37.5t16 96q0 127 12 282q7 101 54 180q36 60 122 115q-73 42 -116 106.5t-57 164.5q-6 42 -14 279q-3 88 -12 108q-13 32 -48.5 47.5t-144.5 15.5v240h53q145 0 214.5 -24t114 -69.5t64 -115t19.5 -239.5q0 -190 20.5 -256t63.5 -99 t135 -38v-240q-89 -5 -131.5 -35.5t-65.5 -97t-23 -223.5q0 -198 -17.5 -270t-57 -115.5t-116 -71.5t-220.5 -28h-53v239z" />
<glyph unicode="~" horiz-adv-x="1229" d="M100 564v319q152 74 250 74q64 0 140.5 -21.5t203.5 -82.5q83 -41 109 -48q35 -10 69 -10q111 0 258 113v-322q-126 -72 -247 -72q-66 0 -133 18t-218 85q-96 42 -128.5 50.5t-65.5 8.5q-50 0 -101 -22t-137 -90z" />
<glyph unicode="&#xa2;" horiz-adv-x="1147" d="M84 545q0 168 70 298t195 201.5t280 71.5q43 0 96 -8l96 218l155 -67l-94 -210q110 -69 169 -164l-223 -132q-23 31 -52 59l-255 -577q55 -21 107 -21q125 0 221 98l175 -170q-86 -88 -186 -129t-229 -41q-95 0 -190 28l-111 -243l-153 66l120 264q-191 188 -191 458z M355 540q0 -98 38 -183l226 513q-123 -7 -193.5 -92t-70.5 -238z" />
<glyph unicode="&#xa3;" horiz-adv-x="1147" d="M49 204q85 34 159 44q55 96 75 163t20 142q0 41 -9 94h-240v252h154q-47 100 -47 201q0 122 49.5 210.5t153.5 143t226 54.5q120 0 218.5 -53t150.5 -146.5t53 -212.5h-281q-31 155 -145 155q-61 0 -102 -43.5t-41 -113.5q0 -41 28 -114l31 -81h340v-252h-267 q12 -69 12 -109q0 -115 -68 -283q39 -5 139 -23q34 -6 55 -6q43 0 71 26q38 34 52 84h259q-4 -99 -57 -186.5t-142 -137t-186 -49.5q-43 0 -143 14q-154 23 -230 23q-98 0 -194 -34z" />
<glyph unicode="&#xa5;" horiz-adv-x="1147" d="M48 1471h291l235 -523l235 523h291l-311 -692h264v-163h-338v-128h338v-169h-338v-319h-283v319h-339v169h339v128h-339v163h265z" />
<glyph unicode="&#xa8;" horiz-adv-x="1024" d="M147 1430q0 59 42 101t101 42q60 0 102 -42t42 -101q0 -60 -42 -102t-102 -42q-59 0 -101 42t-42 102zM590 1430q0 59 42 101t101 42q60 0 102 -42t42 -101q0 -60 -42 -102t-102 -42q-59 0 -101 42t-42 102z" />
<glyph unicode="&#xa9;" horiz-adv-x="1515" d="M-8 757q0 204 102.5 381t280 279.5t383.5 102.5t383.5 -102.5t280 -279.5t102.5 -381q0 -205 -102.5 -382.5t-280.5 -280t-383 -102.5t-383 102.5t-280.5 280t-102.5 382.5zM150 758q0 -161 81 -300.5t222.5 -220.5t303.5 -81q163 0 305 81t223 219.5t81 297.5 q0 253 -177.5 430.5t-429.5 177.5q-164 0 -305.5 -81t-222.5 -221.5t-81 -301.5zM361 770q0 196 119 318t304 122q149 0 245 -75t127 -218h-176q-17 74 -68 114t-126 40q-111 0 -183 -80.5t-72 -218.5q0 -142 76.5 -229.5t182.5 -87.5q75 0 128 45t62 116h176 q-17 -131 -118 -216t-248 -85q-188 0 -308.5 126.5t-120.5 328.5z" />
<glyph unicode="&#xab;" horiz-adv-x="942" d="M25 540l183 548h255l-185 -548l185 -540h-255zM478 540l184 548h255l-185 -548l185 -540h-255z" />
<glyph unicode="&#xad;" horiz-adv-x="860" d="M176 415v254h508v-254h-508z" />
<glyph unicode="&#xae;" horiz-adv-x="1515" d="M-8 756q0 205 102.5 382t280 279.5t383.5 102.5t383.5 -102.5t280 -279.5t102.5 -383q0 -205 -102.5 -381.5t-280 -279t-383.5 -102.5q-205 0 -383 102.5t-280.5 279t-102.5 382.5zM150 758q0 -162 80.5 -301t222.5 -220t305 -81q162 0 304 80.5t223 219t81 297.5 q0 254 -177.5 431.5t-428.5 177.5q-253 0 -431.5 -177t-178.5 -427zM441 334v839h371q117 0 172 -26t88.5 -82t33.5 -135q0 -67 -20.5 -109.5t-77.5 -83.5q46 -26 63 -58.5t21 -114.5q7 -156 13.5 -181.5t35.5 -48.5h-210q-14 34 -18 57t-5 79q-3 111 -12 137t-31.5 39 t-90.5 13h-149v-325h-184zM625 813h154q89 0 118 24t29 77t-28.5 75.5t-117.5 22.5h-155v-199z" />
<glyph unicode="&#xb4;" horiz-adv-x="860" d="M239 1287l239 392h323l-366 -392h-196z" />
<glyph unicode="&#xb8;" horiz-adv-x="696" d="M84 -335l36 129q72 -23 141 -23q51 0 76 19.5t25 51.5q0 26 -19 41t-60 15l-56 -2l35 120h169l-12 -46q67 -15 105.5 -58.5t38.5 -95.5q0 -81 -68 -139t-189 -58q-98 0 -222 46z" />
<glyph unicode="&#xbb;" horiz-adv-x="942" d="M25 0l185 548l-185 540h255l183 -540l-183 -548h-255zM478 0l186 548l-186 540h255l184 -540l-184 -548h-255z" />
<glyph unicode="&#xc0;" horiz-adv-x="1515" d="M49 0l567 1471h284l566 -1471h-291l-115 303h-600l-120 -303h-291zM386 1977h323l239 -392h-196zM564 576h391l-195 505z" />
<glyph unicode="&#xc1;" horiz-adv-x="1515" d="M49 0l567 1471h284l566 -1471h-291l-115 303h-600l-120 -303h-291zM564 576h391l-195 505zM566 1585l239 392h323l-366 -392h-196z" />
<glyph unicode="&#xc2;" horiz-adv-x="1515" d="M49 0l567 1471h284l566 -1471h-291l-115 303h-600l-120 -303h-291zM349 1585l300 283h219l298 -283h-298l-108 131l-111 -131h-300zM564 576h391l-195 505z" />
<glyph unicode="&#xc4;" horiz-adv-x="1515" d="M49 0l567 1471h284l566 -1471h-291l-115 303h-600l-120 -303h-291zM392 1728q0 59 42 101t101 42q60 0 102 -42t42 -101q0 -60 -42 -102t-102 -42q-59 0 -101 42t-42 102zM564 576h391l-195 505zM835 1728q0 59 42 101t101 42q60 0 102 -42t42 -101q0 -60 -42 -102 t-102 -42q-59 0 -101 42t-42 102z" />
<glyph unicode="&#xc5;" horiz-adv-x="1515" d="M49 0l567 1471h284l566 -1471h-291l-115 303h-600l-120 -303h-291zM538 1809q0 92 64 157.5t155 65.5t155 -65.5t64 -157.5q0 -93 -64.5 -158.5t-154.5 -65.5t-154.5 65.5t-64.5 158.5zM564 576h391l-195 505zM675 1814q0 -38 24.5 -64t57.5 -26t57.5 26t24.5 64 q0 37 -24 63t-58 26t-58 -26t-24 -63z" />
<glyph unicode="&#xc6;" horiz-adv-x="1843" d="M57 0l717 1471h963v-274h-517v-267h517v-269h-517v-387h517v-274h-796v304h-449l-147 -304h-288zM624 579h317v644z" />
<glyph unicode="&#xc8;" horiz-adv-x="1065" d="M169 0v1471h803v-274h-525v-266h525v-269h-525v-387h525v-275h-803zM197 1977h323l239 -392h-196z" />
<glyph unicode="&#xc9;" horiz-adv-x="1065" d="M169 0v1471h803v-274h-525v-266h525v-269h-525v-387h525v-275h-803zM378 1585l239 392h323l-366 -392h-196z" />
<glyph unicode="&#xca;" horiz-adv-x="1065" d="M160 1585l300 283h219l298 -283h-298l-108 131l-111 -131h-300zM169 0v1471h803v-274h-525v-266h525v-269h-525v-387h525v-275h-803z" />
<glyph unicode="&#xcb;" horiz-adv-x="1065" d="M169 0v1471h803v-274h-525v-266h525v-269h-525v-387h525v-275h-803zM204 1728q0 59 42 101t101 42q60 0 102 -42t42 -101q0 -60 -42 -102t-102 -42q-59 0 -101 42t-42 102zM647 1728q0 59 42 101t101 42q60 0 102 -42t42 -101q0 -60 -42 -102t-102 -42q-59 0 -101 42 t-42 102z" />
<glyph unicode="&#xcc;" horiz-adv-x="573" d="M-84 1977h323l239 -392h-196zM148 0v1471h278v-1471h-278z" />
<glyph unicode="&#xcd;" horiz-adv-x="573" d="M96 1585l239 392h323l-366 -392h-196zM148 0v1471h278v-1471h-278z" />
<glyph unicode="&#xce;" horiz-adv-x="573" d="M-122 1585l300 283h219l298 -283h-298l-108 131l-111 -131h-300zM148 0v1471h278v-1471h-278z" />
<glyph unicode="&#xcf;" horiz-adv-x="573" d="M-78 1728q0 59 42 101t101 42q60 0 102 -42t42 -101q0 -60 -42 -102t-102 -42q-59 0 -101 42t-42 102zM148 0v1471h278v-1471h-278zM365 1728q0 59 42 101t101 42q60 0 102 -42t42 -101q0 -60 -42 -102t-102 -42q-59 0 -101 42t-42 102z" />
<glyph unicode="&#xd2;" horiz-adv-x="1720" d="M96 736q0 211 102 388t280.5 280.5t384.5 103.5q312 0 536.5 -226t224.5 -551q0 -322 -221.5 -545t-537.5 -223q-331 0 -550 229t-219 544zM378 731q0 -244 175 -386q136 -111 312 -111q199 0 339 144t140 355q0 210 -141 355.5t-343 145.5q-204 0 -343 -142t-139 -361z M489 1977h323l239 -392h-196z" />
<glyph unicode="&#xd3;" horiz-adv-x="1720" d="M96 736q0 211 102 388t280.5 280.5t384.5 103.5q312 0 536.5 -226t224.5 -551q0 -322 -221.5 -545t-537.5 -223q-331 0 -550 229t-219 544zM378 731q0 -244 175 -386q136 -111 312 -111q199 0 339 144t140 355q0 210 -141 355.5t-343 145.5q-204 0 -343 -142t-139 -361z M669 1585l239 392h323l-366 -392h-196z" />
<glyph unicode="&#xd4;" horiz-adv-x="1720" d="M96 736q0 211 102 388t280.5 280.5t384.5 103.5q312 0 536.5 -226t224.5 -551q0 -322 -221.5 -545t-537.5 -223q-331 0 -550 229t-219 544zM378 731q0 -244 175 -386q136 -111 312 -111q199 0 339 144t140 355q0 210 -141 355.5t-343 145.5q-204 0 -343 -142t-139 -361z M451 1585l300 283h219l298 -283h-298l-108 131l-111 -131h-300z" />
<glyph unicode="&#xd5;" horiz-adv-x="1720" d="M96 736q0 211 102 388t280.5 280.5t384.5 103.5q312 0 536.5 -226t224.5 -551q0 -322 -221.5 -545t-537.5 -223q-331 0 -550 229t-219 544zM378 731q0 -244 175 -386q136 -111 312 -111q199 0 339 144t140 355q0 210 -141 355.5t-343 145.5q-204 0 -343 -142t-139 -361z M443 1754q128 99 259 99q49 0 168 -34q81 -22 129 -22q84 0 174 52l104 -156q-126 -108 -244 -108q-63 0 -151 27q-72 21 -91 25q-26 4 -62 4q-88 0 -176 -52z" />
<glyph unicode="&#xd6;" horiz-adv-x="1720" d="M96 736q0 211 102 388t280.5 280.5t384.5 103.5q312 0 536.5 -226t224.5 -551q0 -322 -221.5 -545t-537.5 -223q-331 0 -550 229t-219 544zM378 731q0 -244 175 -386q136 -111 312 -111q199 0 339 144t140 355q0 210 -141 355.5t-343 145.5q-204 0 -343 -142t-139 -361z M495 1728q0 59 42 101t101 42q60 0 102 -42t42 -101q0 -60 -42 -102t-102 -42q-59 0 -101 42t-42 102zM938 1728q0 59 42 101t101 42q60 0 102 -42t42 -101q0 -60 -42 -102t-102 -42q-59 0 -101 42t-42 102z" />
<glyph unicode="&#xd8;" horiz-adv-x="1720" d="M97 736q0 211 102 387.5t280.5 280.5t383.5 104q238 0 443 -145l161 190l126 -104l-164 -198q196 -219 196 -520q0 -322 -221.5 -545t-536.5 -223q-239 0 -426 125l-171 -202l-127 106l171 202q-103 105 -160 246t-57 296zM379 731q0 -194 114 -326l636 749 q-113 80 -267 80q-205 0 -344 -142t-139 -361zM620 300q112 -66 247 -66q198 0 338 144t140 355q0 169 -100 305z" />
<glyph unicode="&#xd9;" d="M158 594v877h281v-952q0 -123 21.5 -174t71 -81.5t119.5 -30.5q74 0 127.5 34t74 86.5t20.5 200.5v917h281v-877q0 -222 -25 -308t-95.5 -166t-162.5 -118.5t-214 -38.5q-160 0 -278.5 73.5t-169.5 184t-51 373.5zM284 1977h323l239 -392h-196z" />
<glyph unicode="&#xda;" d="M158 594v877h281v-952q0 -123 21.5 -174t71 -81.5t119.5 -30.5q74 0 127.5 34t74 86.5t20.5 200.5v917h281v-877q0 -222 -25 -308t-95.5 -166t-162.5 -118.5t-214 -38.5q-160 0 -278.5 73.5t-169.5 184t-51 373.5zM464 1585l239 392h323l-366 -392h-196z" />
<glyph unicode="&#xdb;" d="M158 594v877h281v-952q0 -123 21.5 -174t71 -81.5t119.5 -30.5q74 0 127.5 34t74 86.5t20.5 200.5v917h281v-877q0 -222 -25 -308t-95.5 -166t-162.5 -118.5t-214 -38.5q-160 0 -278.5 73.5t-169.5 184t-51 373.5zM247 1585l300 283h219l298 -283h-298l-108 131 l-111 -131h-300z" />
<glyph unicode="&#xdc;" d="M158 594v877h281v-952q0 -123 21.5 -174t71 -81.5t119.5 -30.5q74 0 127.5 34t74 86.5t20.5 200.5v917h281v-877q0 -222 -25 -308t-95.5 -166t-162.5 -118.5t-214 -38.5q-160 0 -278.5 73.5t-169.5 184t-51 373.5zM291 1728q0 59 42 101t101 42q60 0 102 -42t42 -101 q0 -60 -42 -102t-102 -42q-59 0 -101 42t-42 102zM734 1728q0 59 42 101t101 42q60 0 102 -42t42 -101q0 -60 -42 -102t-102 -42q-59 0 -101 42t-42 102z" />
<glyph unicode="&#xdd;" horiz-adv-x="1270" d="M63 1471h301l274 -528l272 528h297l-430 -834v-637h-282v637zM444 1585l239 392h323l-366 -392h-196z" />
<glyph unicode="&#xe0;" horiz-adv-x="1352" d="M88 542q0 252 149 413t362 161q98 0 184 -37t159 -111v120h272v-1088h-272v115q-80 -76 -160.5 -109.5t-174.5 -33.5q-211 0 -365 163.5t-154 406.5zM305 1679h323l239 -392h-196zM360 545q0 -141 85.5 -232t210.5 -91q129 0 214 89.5t85 234.5q0 142 -85 230t-215 88 q-127 0 -211 -89.5t-84 -229.5z" />
<glyph unicode="&#xe1;" horiz-adv-x="1352" d="M88 542q0 252 149 413t362 161q98 0 184 -37t159 -111v120h272v-1088h-272v115q-80 -76 -160.5 -109.5t-174.5 -33.5q-211 0 -365 163.5t-154 406.5zM360 545q0 -141 85.5 -232t210.5 -91q129 0 214 89.5t85 234.5q0 142 -85 230t-215 88q-127 0 -211 -89.5t-84 -229.5z M485 1287l239 392h323l-366 -392h-196z" />
<glyph unicode="&#xe2;" horiz-adv-x="1352" d="M88 542q0 252 149 413t362 161q98 0 184 -37t159 -111v120h272v-1088h-272v115q-80 -76 -160.5 -109.5t-174.5 -33.5q-211 0 -365 163.5t-154 406.5zM267 1287l300 283h219l298 -283h-298l-108 131l-111 -131h-300zM360 545q0 -141 85.5 -232t210.5 -91q129 0 214 89.5 t85 234.5q0 142 -85 230t-215 88q-127 0 -211 -89.5t-84 -229.5z" />
<glyph unicode="&#xe4;" horiz-adv-x="1352" d="M88 542q0 252 149 413t362 161q98 0 184 -37t159 -111v120h272v-1088h-272v115q-80 -76 -160.5 -109.5t-174.5 -33.5q-211 0 -365 163.5t-154 406.5zM311 1430q0 59 42 101t101 42q60 0 102 -42t42 -101q0 -60 -42 -102t-102 -42q-59 0 -101 42t-42 102zM360 545 q0 -141 85.5 -232t210.5 -91q129 0 214 89.5t85 234.5q0 142 -85 230t-215 88q-127 0 -211 -89.5t-84 -229.5zM754 1430q0 59 42 101t101 42q60 0 102 -42t42 -101q0 -60 -42 -102t-102 -42q-59 0 -101 42t-42 102z" />
<glyph unicode="&#xe5;" horiz-adv-x="1352" d="M88 542q0 252 149 413t362 161q98 0 184 -37t159 -111v120h272v-1088h-272v115q-80 -76 -160.5 -109.5t-174.5 -33.5q-211 0 -365 163.5t-154 406.5zM360 545q0 -141 85.5 -232t210.5 -91q129 0 214 89.5t85 234.5q0 142 -85 230t-215 88q-127 0 -211 -89.5t-84 -229.5z M457 1511q0 92 64 157.5t155 65.5t155 -65.5t64 -157.5q0 -93 -64.5 -158.5t-154.5 -65.5t-154.5 65.5t-64.5 158.5zM594 1516q0 -38 24.5 -64t57.5 -26t57.5 26t24.5 64q0 37 -24 63t-58 26t-58 -26t-24 -63z" />
<glyph unicode="&#xe6;" horiz-adv-x="2212" d="M89 541q0 241 159.5 408t380.5 167q121 0 224 -53q71 -36 139 -117v142h251v-80q136 108 322 108q158 0 291 -76.5t205.5 -211.5t72.5 -303l-2 -62h-876q24 -119 106 -186.5t212 -67.5q75 0 134.5 25t121.5 85l230 -108q-54 -79 -125 -130t-163 -80t-200 -29 q-200 0 -329 106v-78h-251v138q-79 -89 -164 -127.5t-196 -38.5q-231 0 -387 162t-156 407zM367 542q0 -139 88.5 -230t224.5 -91q141 0 227.5 90t86.5 239q0 138 -88.5 228t-222.5 90q-135 0 -225.5 -92.5t-90.5 -233.5zM1269 676h591q-25 93 -101.5 150t-184.5 57 q-110 0 -189 -53t-116 -154z" />
<glyph unicode="&#xe8;" d="M87 538q0 249 160.5 413.5t402.5 164.5q257 0 418 -164.5t161 -434.5l-1 -52h-877q19 -116 101.5 -184.5t210.5 -68.5q153 0 263 107l230 -108q-86 -122 -206 -180.5t-285 -58.5q-256 0 -417 161.5t-161 404.5zM284 1679h323l239 -392h-196zM363 680h591 q-27 91 -106.5 148t-184.5 57q-114 0 -200 -64q-54 -40 -100 -141z" />
<glyph unicode="&#xe9;" d="M87 538q0 249 160.5 413.5t402.5 164.5q257 0 418 -164.5t161 -434.5l-1 -52h-877q19 -116 101.5 -184.5t210.5 -68.5q153 0 263 107l230 -108q-86 -122 -206 -180.5t-285 -58.5q-256 0 -417 161.5t-161 404.5zM363 680h591q-27 91 -106.5 148t-184.5 57q-114 0 -200 -64 q-54 -40 -100 -141zM464 1287l239 392h323l-366 -392h-196z" />
<glyph unicode="&#xea;" d="M87 538q0 249 160.5 413.5t402.5 164.5q257 0 418 -164.5t161 -434.5l-1 -52h-877q19 -116 101.5 -184.5t210.5 -68.5q153 0 263 107l230 -108q-86 -122 -206 -180.5t-285 -58.5q-256 0 -417 161.5t-161 404.5zM247 1287l300 283h219l298 -283h-298l-108 131l-111 -131 h-300zM363 680h591q-27 91 -106.5 148t-184.5 57q-114 0 -200 -64q-54 -40 -100 -141z" />
<glyph unicode="&#xeb;" d="M87 538q0 249 160.5 413.5t402.5 164.5q257 0 418 -164.5t161 -434.5l-1 -52h-877q19 -116 101.5 -184.5t210.5 -68.5q153 0 263 107l230 -108q-86 -122 -206 -180.5t-285 -58.5q-256 0 -417 161.5t-161 404.5zM291 1430q0 59 42 101t101 42q60 0 102 -42t42 -101 q0 -60 -42 -102t-102 -42q-59 0 -101 42t-42 102zM363 680h591q-27 91 -106.5 148t-184.5 57q-114 0 -200 -64q-54 -40 -100 -141zM734 1430q0 59 42 101t101 42q60 0 102 -42t42 -101q0 -60 -42 -102t-102 -42q-59 0 -101 42t-42 102z" />
<glyph unicode="&#xec;" horiz-adv-x="491" d="M-125 1679h323l239 -392h-196zM108 0v1088h274v-1088h-274z" />
<glyph unicode="&#xed;" horiz-adv-x="491" d="M55 1287l239 392h323l-366 -392h-196zM108 0v1088h274v-1088h-274z" />
<glyph unicode="&#xee;" horiz-adv-x="491" d="M-163 1287l300 283h219l298 -283h-298l-108 131l-111 -131h-300zM108 0v1088h274v-1088h-274z" />
<glyph unicode="&#xef;" horiz-adv-x="491" d="M-119 1430q0 59 42 101t101 42q60 0 102 -42t42 -101q0 -60 -42 -102t-102 -42q-59 0 -101 42t-42 102zM108 0v1088h274v-1088h-274zM324 1430q0 59 42 101t101 42q60 0 102 -42t42 -101q0 -60 -42 -102t-102 -42q-59 0 -101 42t-42 102z" />
<glyph unicode="&#xf2;" d="M85 543q0 255 187 425q164 148 377 148q154 0 289.5 -77t211.5 -209t76 -285q0 -154 -76.5 -288t-208.5 -209.5t-291 -75.5q-234 0 -399.5 166.5t-165.5 404.5zM284 1679h323l239 -392h-196zM357 544q0 -142 83.5 -230t211.5 -88t213 89t85 229t-83.5 227.5t-213.5 87.5 q-127 0 -211.5 -88.5t-84.5 -226.5z" />
<glyph unicode="&#xf3;" d="M85 543q0 255 187 425q164 148 377 148q154 0 289.5 -77t211.5 -209t76 -285q0 -154 -76.5 -288t-208.5 -209.5t-291 -75.5q-234 0 -399.5 166.5t-165.5 404.5zM357 544q0 -142 83.5 -230t211.5 -88t213 89t85 229t-83.5 227.5t-213.5 87.5q-127 0 -211.5 -88.5 t-84.5 -226.5zM464 1287l239 392h323l-366 -392h-196z" />
<glyph unicode="&#xf4;" d="M85 543q0 255 187 425q164 148 377 148q154 0 289.5 -77t211.5 -209t76 -285q0 -154 -76.5 -288t-208.5 -209.5t-291 -75.5q-234 0 -399.5 166.5t-165.5 404.5zM247 1287l300 283h219l298 -283h-298l-108 131l-111 -131h-300zM357 544q0 -142 83.5 -230t211.5 -88t213 89 t85 229t-83.5 227.5t-213.5 87.5q-127 0 -211.5 -88.5t-84.5 -226.5z" />
<glyph unicode="&#xf5;" d="M85 543q0 255 187 425q164 148 377 148q154 0 289.5 -77t211.5 -209t76 -285q0 -154 -76.5 -288t-208.5 -209.5t-291 -75.5q-234 0 -399.5 166.5t-165.5 404.5zM239 1456q128 99 259 99q49 0 168 -34q81 -22 129 -22q84 0 174 52l104 -156q-126 -108 -244 -108 q-63 0 -151 27q-72 21 -91 25q-26 4 -62 4q-88 0 -176 -52zM357 544q0 -142 83.5 -230t211.5 -88t213 89t85 229t-83.5 227.5t-213.5 87.5q-127 0 -211.5 -88.5t-84.5 -226.5z" />
<glyph unicode="&#xf6;" d="M85 543q0 255 187 425q164 148 377 148q154 0 289.5 -77t211.5 -209t76 -285q0 -154 -76.5 -288t-208.5 -209.5t-291 -75.5q-234 0 -399.5 166.5t-165.5 404.5zM290 1430q0 59 42 101t101 42q60 0 102 -42t42 -101q0 -60 -42 -102t-102 -42q-59 0 -101 42t-42 102z M357 544q0 -142 83.5 -230t211.5 -88t213 89t85 229t-83.5 227.5t-213.5 87.5q-127 0 -211.5 -88.5t-84.5 -226.5zM733 1430q0 59 42 101t101 42q60 0 102 -42t42 -101q0 -60 -42 -102t-102 -42q-59 0 -101 42t-42 102z" />
<glyph unicode="&#xf8;" horiz-adv-x="1352" d="M106 543q0 254 186 423q164 150 379 150q178 0 331 -103l126 140l123 -110l-128 -143q124 -160 124 -355q0 -154 -76.5 -288t-208.5 -209.5t-290 -75.5q-168 0 -303 88l-130 -145l-125 107l130 146q-138 159 -138 375zM378 544q0 -94 45 -177l406 453q-68 39 -154 39 q-127 0 -212 -88.5t-85 -226.5zM544 255q63 -29 131 -29q126 0 211 89t85 229q0 82 -32 152z" />
<glyph unicode="&#xf9;" horiz-adv-x="1229" d="M137 635v453h276v-524q0 -153 21 -212.5t67.5 -92.5t114.5 -33t115.5 32.5t70.5 95.5q17 47 17 201v533h274v-461q0 -285 -45 -390q-55 -128 -162 -196.5t-272 -68.5q-179 0 -289.5 80t-155.5 223q-32 99 -32 360zM244 1679h323l239 -392h-196z" />
<glyph unicode="&#xfa;" horiz-adv-x="1229" d="M137 635v453h276v-524q0 -153 21 -212.5t67.5 -92.5t114.5 -33t115.5 32.5t70.5 95.5q17 47 17 201v533h274v-461q0 -285 -45 -390q-55 -128 -162 -196.5t-272 -68.5q-179 0 -289.5 80t-155.5 223q-32 99 -32 360zM424 1287l239 392h323l-366 -392h-196z" />
<glyph unicode="&#xfb;" horiz-adv-x="1229" d="M137 635v453h276v-524q0 -153 21 -212.5t67.5 -92.5t114.5 -33t115.5 32.5t70.5 95.5q17 47 17 201v533h274v-461q0 -285 -45 -390q-55 -128 -162 -196.5t-272 -68.5q-179 0 -289.5 80t-155.5 223q-32 99 -32 360zM206 1287l300 283h219l298 -283h-298l-108 131 l-111 -131h-300z" />
<glyph unicode="&#xfc;" horiz-adv-x="1229" d="M137 635v453h276v-524q0 -153 21 -212.5t67.5 -92.5t114.5 -33t115.5 32.5t70.5 95.5q17 47 17 201v533h274v-461q0 -285 -45 -390q-55 -128 -162 -196.5t-272 -68.5q-179 0 -289.5 80t-155.5 223q-32 99 -32 360zM250 1430q0 59 42 101t101 42q60 0 102 -42t42 -101 q0 -60 -42 -102t-102 -42q-59 0 -101 42t-42 102zM693 1430q0 59 42 101t101 42q60 0 102 -42t42 -101q0 -60 -42 -102t-102 -42q-59 0 -101 42t-42 102z" />
<glyph unicode="&#xfd;" horiz-adv-x="1188" d="M17 1088h279l283 -683l312 683h280l-682 -1486h-282l224 479zM402 1287l239 392h323l-366 -392h-196z" />
<glyph unicode="&#xff;" horiz-adv-x="1188" d="M17 1088h279l283 -683l312 683h280l-682 -1486h-282l224 479zM229 1430q0 59 42 101t101 42q60 0 102 -42t42 -101q0 -60 -42 -102t-102 -42q-59 0 -101 42t-42 102zM672 1430q0 59 42 101t101 42q60 0 102 -42t42 -101q0 -60 -42 -102t-102 -42q-59 0 -101 42t-42 102z " />
<glyph unicode="&#x108;" horiz-adv-x="1597" d="M95 738q0 220 99.5 391t285 275t399.5 104q182 0 350.5 -77t290.5 -219l-196 -187q-200 211 -450 211q-211 0 -355.5 -144t-144.5 -355q0 -147 64 -261t181 -179t260 -65q122 0 223 45.5t222 165.5l190 -198q-163 -159 -308 -220.5t-331 -61.5q-343 0 -561.5 217.5 t-218.5 557.5zM436 1585l300 283h219l298 -283h-298l-108 131l-111 -131h-300z" />
<glyph unicode="&#x109;" d="M85 540q0 158 79 291t220.5 209t316.5 76q162 0 291 -64.5t211 -183.5l-227 -125q-64 67 -126.5 93t-146.5 26q-153 0 -247.5 -91.5t-94.5 -234.5q0 -139 91 -227t239 -88q183 0 285 125l215 -147q-175 -227 -494 -227q-287 0 -449.5 170t-162.5 398zM235 1287l300 283 h219l298 -283h-298l-108 131l-111 -131h-300z" />
<glyph unicode="&#x10c;" horiz-adv-x="1597" d="M95 738q0 220 99.5 391t285 275t399.5 104q182 0 350.5 -77t290.5 -219l-196 -187q-200 211 -450 211q-211 0 -355.5 -144t-144.5 -355q0 -147 64 -261t181 -179t260 -65q122 0 223 45.5t222 165.5l190 -198q-163 -159 -308 -220.5t-331 -61.5q-343 0 -561.5 217.5 t-218.5 557.5zM463 1866h300l111 -132l108 132h298l-298 -283h-219z" />
<glyph unicode="&#x10d;" d="M85 540q0 158 79 291t220.5 209t316.5 76q162 0 291 -64.5t211 -183.5l-227 -125q-64 67 -126.5 93t-146.5 26q-153 0 -247.5 -91.5t-94.5 -234.5q0 -139 91 -227t239 -88q183 0 285 125l215 -147q-175 -227 -494 -227q-287 0 -449.5 170t-162.5 398zM283 1570h300 l111 -132l108 132h298l-298 -283h-219z" />
<glyph unicode="&#x10e;" horiz-adv-x="1434" d="M160 1868h300l111 -132l108 132h298l-298 -283h-219zM169 0v1471h332q321 0 477 -79.5t257 -258.5t101 -418q0 -170 -56.5 -312.5t-156 -236.5t-215.5 -130t-402 -36h-337zM448 274h130q192 0 278.5 44t141.5 148t55 256q0 234 -131 363q-118 116 -379 116h-95v-927z" />
<glyph unicode="&#x10f;" horiz-adv-x="1477" d="M88 542q0 252 149 413t362 161q98 0 184 -37t159 -111v540h272v-1508h-272v115q-80 -76 -160.5 -109.5t-174.5 -33.5q-211 0 -365 163.5t-154 406.5zM360 545q0 -141 85.5 -232t210.5 -91q129 0 214 89.5t85 234.5q0 142 -85 230t-215 88q-127 0 -211 -89.5t-84 -229.5z M1289 1222v286h252v-138q0 -132 -32.5 -227t-109.5 -196l-98 77q37 54 54.5 93.5t34.5 104.5h-101z" />
<glyph unicode="&#x11a;" horiz-adv-x="1065" d="M169 0v1471h803v-274h-525v-266h525v-269h-525v-387h525v-275h-803zM194 1868h300l111 -132l108 132h298l-298 -283h-219z" />
<glyph unicode="&#x11b;" d="M87 538q0 249 160.5 413.5t402.5 164.5q257 0 418 -164.5t161 -434.5l-1 -52h-877q19 -116 101.5 -184.5t210.5 -68.5q153 0 263 107l230 -108q-86 -122 -206 -180.5t-285 -58.5q-256 0 -417 161.5t-161 404.5zM247 1570h300l111 -132l108 132h298l-298 -283h-219z M363 680h591q-27 91 -106.5 148t-184.5 57q-114 0 -200 -64q-54 -40 -100 -141z" />
<glyph unicode="&#x11c;" horiz-adv-x="1720" d="M102 743q0 292 193 508q229 257 596 257q192 0 359 -71q141 -60 276 -206l-197 -195q-187 198 -436 198q-217 0 -363.5 -144t-146.5 -350q0 -213 152 -361t375 -148q145 0 244.5 61t160.5 191h-426v263h740l2 -62q0 -193 -100 -366t-259 -264t-373 -91 q-229 0 -408.5 99.5t-284 283.5t-104.5 397zM458 1585l300 283h219l298 -283h-298l-108 131l-111 -131h-300z" />
<glyph unicode="&#x11d;" horiz-adv-x="1352" d="M90 -80h301q40 -46 103 -69.5t149 -23.5q110 0 177 34t94.5 88t27.5 186q-72 -72 -151 -103.5t-179 -31.5q-219 0 -370 158t-151 400q0 259 160 416q145 142 346 142q94 0 177.5 -34.5t167.5 -113.5v120h272v-932q0 -276 -111 -406q-149 -176 -449 -176q-160 0 -269 40 t-184 117.5t-111 188.5zM243 1287l300 283h219l298 -283h-298l-108 131l-111 -131h-300zM362 557q0 -136 86 -223t216 -87q127 0 209.5 85t82.5 223q0 136 -83 221t-214 85q-129 0 -213 -86.5t-84 -217.5z" />
<glyph unicode="&#x124;" horiz-adv-x="1393" d="M167 0v1471h284v-555h492v555h283v-1471h-283v645h-492v-645h-284zM288 1585l300 283h219l298 -283h-298l-108 131l-111 -131h-300z" />
<glyph unicode="&#x125;" horiz-adv-x="1229" d="M137 0v1508h271v-530q80 69 161 103.5t164 34.5q162 0 273 -112q95 -97 95 -285v-719h-269v477q0 189 -18 256t-61.5 100t-107.5 33q-83 0 -142.5 -55t-82.5 -150q-12 -49 -12 -224v-437h-271zM211 1583l300 283h219l298 -283h-298l-108 131l-111 -131h-300z" />
<glyph unicode="&#x134;" horiz-adv-x="983" d="M38 176l202 189q67 -76 114 -102t91 -26q45 0 67 38t22 167v1029h281v-976q0 -233 -37 -327t-122 -149.5t-204 -55.5q-243 0 -414 213zM156 1585l300 283h219l298 -283h-298l-108 131l-111 -131h-300z" />
<glyph unicode="&#x135;" horiz-adv-x="532" d="M-142 1287l300 283h219l298 -283h-298l-108 131l-111 -131h-300zM-87 -170q63 -31 113 -31q53 0 78.5 31t25.5 114v1144h274v-1124q0 -240 -83.5 -315t-202.5 -75q-86 0 -205 41v215z" />
<glyph unicode="&#x147;" horiz-adv-x="1515" d="M169 0v1471h268l631 -968v968h280v-1471h-269l-630 965v-965h-280zM311 1868h300l111 -132l108 132h298l-298 -283h-219z" />
<glyph unicode="&#x148;" horiz-adv-x="1229" d="M138 0v1088h272v-111q93 78 168.5 108.5t154.5 30.5q162 0 275 -113q95 -96 95 -284v-719h-270v477q0 195 -17.5 259t-61 97.5t-107.5 33.5q-83 0 -142.5 -55.5t-82.5 -153.5q-12 -51 -12 -221v-437h-272zM297 1570h300l111 -132l108 132h298l-298 -283h-219z" />
<glyph unicode="&#x158;" horiz-adv-x="1188" d="M185 1868h300l111 -132l108 132h298l-298 -283h-219zM187 0v1471h297q244 0 347.5 -43.5t166.5 -144.5t63 -239q0 -145 -69.5 -242.5t-209.5 -147.5l348 -654h-306l-331 623h-26v-623h-280zM467 896h88q134 0 184.5 35t50.5 116q0 48 -25 83.5t-67 51t-154 15.5h-77v-301 z" />
<glyph unicode="&#x159;" horiz-adv-x="655" d="M-81 1570h300l111 -132l108 132h298l-298 -283h-219zM74 0v1088h234v-137q38 81 101 123t138 42q53 0 111 -28l-85 -235q-48 24 -79 24q-63 0 -106.5 -78t-43.5 -306l1 -53v-440h-271z" />
<glyph unicode="&#x15c;" horiz-adv-x="1065" d="M41 282l235 142q106 -195 244 -195q72 0 121 42t49 97q0 50 -37 100t-163 153q-240 196 -310 302.5t-70 212.5q0 153 116.5 262.5t287.5 109.5q110 0 209.5 -51t215.5 -186l-207 -183q-109 152 -222 152q-55 0 -90 -29.5t-35 -66.5t25 -70q34 -44 205 -189 q160 -134 194 -169q85 -86 120.5 -164.5t35.5 -171.5q0 -181 -125 -299t-326 -118q-157 0 -273.5 77t-199.5 242zM95 1585l300 283h219l298 -283h-298l-108 131l-111 -131h-300z" />
<glyph unicode="&#x15d;" horiz-adv-x="901" d="M30 1287l300 283h219l298 -283h-298l-108 131l-111 -131h-300zM53 158l168 183q48 -56 112.5 -90.5t114.5 -34.5q54 0 87 26t33 60q0 63 -119 123l-92 46q-264 133 -264 333q0 129 99.5 220.5t254.5 91.5q106 0 199.5 -46.5t158.5 -133.5l-169 -169q-103 102 -187 102 q-46 0 -72 -19.5t-26 -48.5q0 -22 16.5 -40.5t81.5 -50.5l100 -50q158 -78 217 -159t59 -190q0 -145 -106.5 -242t-285.5 -97q-238 0 -380 186z" />
<glyph unicode="&#x160;" horiz-adv-x="1065" d="M41 282l235 142q106 -195 244 -195q72 0 121 42t49 97q0 50 -37 100t-163 153q-240 196 -310 302.5t-70 212.5q0 153 116.5 262.5t287.5 109.5q110 0 209.5 -51t215.5 -186l-207 -183q-109 152 -222 152q-55 0 -90 -29.5t-35 -66.5t25 -70q34 -44 205 -189 q160 -134 194 -169q85 -86 120.5 -164.5t35.5 -171.5q0 -181 -125 -299t-326 -118q-157 0 -273.5 77t-199.5 242zM124 1868h300l111 -132l108 132h298l-298 -283h-219z" />
<glyph unicode="&#x161;" horiz-adv-x="901" d="M42 1570h300l111 -132l108 132h298l-298 -283h-219zM52 158l168 183q48 -56 112.5 -90.5t114.5 -34.5q54 0 87 26t33 60q0 63 -119 123l-92 46q-264 133 -264 333q0 129 99.5 220.5t254.5 91.5q106 0 199.5 -46.5t158.5 -133.5l-169 -169q-103 102 -187 102 q-46 0 -72 -19.5t-26 -48.5q0 -22 16.5 -40.5t81.5 -50.5l100 -50q158 -78 217 -159t59 -190q0 -145 -106.5 -242t-285.5 -97q-238 0 -380 186z" />
<glyph unicode="&#x164;" horiz-adv-x="860" d="M23 1195v276h813v-276h-268v-1195h-284v1195h-261zM24 1868h300l111 -132l108 132h298l-298 -283h-219z" />
<glyph unicode="&#x165;" horiz-adv-x="735" d="M31 853v235h140v401h272v-401h162v-235h-162v-853h-272v853h-140zM595 1339v169h204v-50q0 -198 -115 -338l-79 61q65 81 72 158h-82z" />
<glyph unicode="&#x16c;" d="M158 594v877h281v-952q0 -123 21.5 -174t71 -81.5t119.5 -30.5q74 0 127.5 34t74 86.5t20.5 200.5v917h281v-877q0 -222 -25 -308t-95.5 -166t-162.5 -118.5t-214 -38.5q-160 0 -278.5 73.5t-169.5 184t-51 373.5zM249 1866h221q26 -41 72.5 -61.5t113.5 -20.5 q68 0 123 24q36 16 63 58h221q-19 -127 -121.5 -204t-286.5 -77q-124 0 -207.5 34.5t-134.5 98.5t-64 148z" />
<glyph unicode="&#x16d;" horiz-adv-x="1229" d="M137 635v453h276v-524q0 -153 21 -212.5t67.5 -92.5t114.5 -33t115.5 32.5t70.5 95.5q17 47 17 201v533h274v-461q0 -285 -45 -390q-55 -128 -162 -196.5t-272 -68.5q-179 0 -289.5 80t-155.5 223q-32 99 -32 360zM208 1568h221q26 -41 72.5 -61.5t113.5 -20.5 q68 0 123 24q36 16 63 58h221q-19 -127 -121.5 -204t-286.5 -77q-124 0 -207.5 34.5t-134.5 98.5t-64 148z" />
<glyph unicode="&#x16e;" d="M158 594v877h281v-952q0 -123 21.5 -174t71 -81.5t119.5 -30.5q74 0 127.5 34t74 86.5t20.5 200.5v917h281v-877q0 -222 -25 -308t-95.5 -166t-162.5 -118.5t-214 -38.5q-160 0 -278.5 73.5t-169.5 184t-51 373.5zM449 1809q0 92 64 157.5t155 65.5t155 -65.5t64 -157.5 q0 -93 -64.5 -158.5t-154.5 -65.5t-154.5 65.5t-64.5 158.5zM586 1814q0 -38 24.5 -64t57.5 -26t57.5 26t24.5 64q0 37 -24 63t-58 26t-58 -26t-24 -63z" />
<glyph unicode="&#x16f;" horiz-adv-x="1229" d="M137 635v453h276v-524q0 -153 21 -212.5t67.5 -92.5t114.5 -33t115.5 32.5t70.5 95.5q17 47 17 201v533h274v-461q0 -285 -45 -390q-55 -128 -162 -196.5t-272 -68.5q-179 0 -289.5 80t-155.5 223q-32 99 -32 360zM352 1511q0 92 64 157.5t155 65.5t155 -65.5t64 -157.5 q0 -93 -64.5 -158.5t-154.5 -65.5t-154.5 65.5t-64.5 158.5zM489 1516q0 -38 24.5 -64t57.5 -26t57.5 26t24.5 64q0 37 -24 63t-58 26t-58 -26t-24 -63z" />
<glyph unicode="&#x178;" horiz-adv-x="1270" d="M63 1471h301l274 -528l272 528h297l-430 -834v-637h-282v637zM280 1728q0 59 42 101t101 42q60 0 102 -42t42 -101q0 -60 -42 -102t-102 -42q-59 0 -101 42t-42 102zM723 1728q0 59 42 101t101 42q60 0 102 -42t42 -101q0 -60 -42 -102t-102 -42q-59 0 -101 42t-42 102z " />
<glyph unicode="&#x17d;" horiz-adv-x="1024" d="M47 0l523 1194h-480v277h890l-525 -1202h491v-269h-899zM103 1868h300l111 -132l108 132h298l-298 -283h-219z" />
<glyph unicode="&#x17e;" horiz-adv-x="942" d="M16 0l492 857h-417v231h835l-490 -857h462v-231h-882zM62 1570h300l111 -132l108 132h298l-298 -283h-219z" />
<glyph unicode="&#x2c6;" horiz-adv-x="1106" d="M144 1287l300 283h219l298 -283h-298l-108 131l-111 -131h-300z" />
<glyph unicode="&#x2da;" horiz-adv-x="737" d="M149 1511q0 92 64 157.5t155 65.5t155 -65.5t64 -157.5q0 -93 -64.5 -158.5t-154.5 -65.5t-154.5 65.5t-64.5 158.5zM286 1516q0 -38 24.5 -64t57.5 -26t57.5 26t24.5 64q0 37 -24 63t-58 26t-58 -26t-24 -63z" />
<glyph unicode="&#x2dc;" horiz-adv-x="983" d="M75 1456q128 99 259 99q49 0 168 -34q81 -22 129 -22q84 0 174 52l104 -156q-126 -108 -244 -108q-63 0 -151 27q-72 21 -91 25q-26 4 -62 4q-88 0 -176 -52z" />
<glyph unicode="&#x401;" horiz-adv-x="1065" d="M169 0v1471h803v-274h-525v-266h525v-269h-525v-387h525v-275h-803zM204 1728q0 59 42 101t101 42q60 0 102 -42t42 -101q0 -60 -42 -102t-102 -42q-59 0 -101 42t-42 102zM647 1728q0 59 42 101t101 42q60 0 102 -42t42 -101q0 -60 -42 -102t-102 -42q-59 0 -101 42 t-42 102z" />
<glyph unicode="&#x402;" horiz-adv-x="1413" d="M20 1195v276h813v-276h-264v-279h120q251 0 382 -43t198.5 -157t67.5 -287q0 -208 -89 -335.5t-265 -127.5q-112 0 -268 47l85 234q66 -24 108 -24q142 0 142 192q0 98 -43.5 150t-117 66t-226.5 14h-94v-645h-285v1195h-264z" />
<glyph unicode="&#x403;" horiz-adv-x="948" d="M167 0v1471h730v-274h-453v-1197h-277zM452 1585l239 392h323l-366 -392h-196z" />
<glyph unicode="&#x404;" horiz-adv-x="1597" d="M96 738q0 346 235 558t549 212q178 0 350 -77t291 -219l-196 -187q-195 211 -450 211q-186 0 -325.5 -117t-159.5 -268h564v-255h-564q57 -191 193 -277.5t297 -86.5q241 0 445 211l190 -198q-172 -170 -322 -226t-317 -56q-351 0 -565.5 221.5t-214.5 553.5z" />
<glyph unicode="&#x405;" horiz-adv-x="1065" d="M41 282l235 142q106 -195 244 -195q72 0 121 42t49 97q0 50 -37 100t-163 153q-240 196 -310 302.5t-70 212.5q0 153 116.5 262.5t287.5 109.5q110 0 209.5 -51t215.5 -186l-207 -183q-109 152 -222 152q-55 0 -90 -29.5t-35 -66.5t25 -70q34 -44 205 -189 q160 -134 194 -169q85 -86 120.5 -164.5t35.5 -171.5q0 -181 -125 -299t-326 -118q-157 0 -273.5 77t-199.5 242z" />
<glyph unicode="&#x406;" horiz-adv-x="573" d="M148 0v1471h278v-1471h-278z" />
<glyph unicode="&#x407;" horiz-adv-x="573" d="M-78 1728q0 59 42 101t101 42q60 0 102 -42t42 -101q0 -60 -42 -102t-102 -42q-59 0 -101 42t-42 102zM148 0v1471h278v-1471h-278zM365 1728q0 59 42 101t101 42q60 0 102 -42t42 -101q0 -60 -42 -102t-102 -42q-59 0 -101 42t-42 102z" />
<glyph unicode="&#x408;" horiz-adv-x="983" d="M38 176l202 189q67 -76 114 -102t91 -26q45 0 67 38t22 167v1029h281v-976q0 -233 -37 -327t-122 -149.5t-204 -55.5q-243 0 -414 213z" />
<glyph unicode="&#x409;" horiz-adv-x="2034" d="M2 0l567 1471h284l233 -555h293q186 0 296.5 -35.5t196 -154t85.5 -280.5q0 -156 -82 -267.5t-183.5 -145t-272.5 -33.5h-299l-407 1081l-414 -1081h-297zM1167 666l154 -399h67q174 0 233 43t59 147q0 209 -305 209h-208zM1425 0z" />
<glyph unicode="&#x40a;" horiz-adv-x="1941" d="M167 0v1471h284v-555h492v555h283v-555h78q287 0 424.5 -135.5t137.5 -332.5q0 -151 -73 -256.5t-170 -148.5t-264 -43h-416v648h-492v-648h-284zM1226 267h71q175 0 233.5 46.5t58.5 138.5q0 197 -258 197l-47 -1h-58v-381z" />
<glyph unicode="&#x40b;" horiz-adv-x="1403" d="M20 1195v276h813v-276h-264v-279h93q205 0 301.5 -21t184 -90t123 -167t35.5 -257v-381h-283v376q0 159 -69 214t-267 55h-118v-645h-285v1195h-264z" />
<glyph unicode="&#x40c;" horiz-adv-x="1266" d="M167 0v1471h283v-506l399 506h337l-514 -656l564 -815h-332l-454 653v-653h-283zM512 1585l239 392h323l-366 -392h-196z" />
<glyph unicode="&#x40e;" horiz-adv-x="1313" d="M25 180l184 185q110 -128 217 -128q48 0 79 23t74 76l-522 1135h316l346 -820l284 820h288l-392 -1052q-101 -270 -219.5 -361.5t-252.5 -91.5q-218 0 -402 214zM274 1865h221q26 -41 72.5 -61.5t113.5 -20.5q68 0 123 24q36 16 63 58h221q-19 -127 -121.5 -204 t-286.5 -77q-124 0 -207.5 34.5t-134.5 98.5t-64 148z" />
<glyph unicode="&#x40f;" horiz-adv-x="1393" d="M167 0v1471h284v-1219h491v1219h284v-1471h-399v-220h-262v220h-398z" />
<glyph unicode="&#x410;" horiz-adv-x="1515" d="M49 0l567 1471h284l566 -1471h-291l-115 303h-600l-120 -303h-291zM564 576h391l-195 505z" />
<glyph unicode="&#x411;" horiz-adv-x="1165" d="M167 0v1471h769v-273h-489v-282h61q186 0 304 -41t196.5 -154.5t78.5 -268.5q0 -154 -59 -245.5t-162.5 -149t-286.5 -57.5h-412zM447 267h70q192 0 243 50t51 135q0 214 -306 214h-58v-399z" />
<glyph unicode="&#x412;" horiz-adv-x="1188" d="M168 0v1471h231q201 0 294 -26q132 -35 210 -130t78 -224q0 -84 -35.5 -152.5t-115.5 -128.5q134 -63 196 -157.5t62 -223.5q0 -124 -64 -226t-165 -152.5t-279 -50.5h-412zM448 267h70q174 0 234.5 44t60.5 128q0 95 -71 150t-236 55h-58v-377zM448 894h61 q102 0 151.5 43t49.5 117q0 69 -47 109.5t-143 40.5h-72v-310z" />
<glyph unicode="&#x413;" horiz-adv-x="948" d="M167 0v1471h730v-274h-453v-1197h-277z" />
<glyph unicode="&#x414;" horiz-adv-x="1579" d="M12 -220v483h163l471 1208h283l473 -1208h164v-483h-271v220h-1012v-220h-271zM468 263h643l-321 818z" />
<glyph unicode="&#x415;" horiz-adv-x="1065" d="M169 0v1471h803v-274h-525v-266h525v-269h-525v-387h525v-275h-803z" />
<glyph unicode="&#x416;" horiz-adv-x="1915" d="M30 0l543 851l-493 620h337l398 -526v526h284v-526l398 526h338l-494 -620l543 -851h-332l-414 695l-39 -42v-653h-284v653l-39 42l-414 -695h-332z" />
<glyph unicode="&#x417;" horiz-adv-x="1094" d="M24 226l214 157q111 -155 260 -155q99 0 160 56t61 149q0 91 -59.5 151t-246.5 60h-60v250h60q111 0 168.5 51t57.5 137q0 79 -48 125t-127 46q-94 0 -193 -93l-165 184q133 120 222 143.5t164 23.5q180 0 302.5 -105t122.5 -283q0 -79 -27.5 -154t-153.5 -159 q258 -115 258 -393q0 -205 -137.5 -329.5t-353.5 -124.5q-136 0 -244 49.5t-235 213.5z" />
<glyph unicode="&#x418;" horiz-adv-x="1407" d="M167 0v1471h280v-951l557 951h236v-1471h-280v921l-549 -921h-244z" />
<glyph unicode="&#x419;" horiz-adv-x="1407" d="M167 0v1471h280v-951l557 951h236v-1471h-280v921l-549 -921h-244zM306 1865h221q26 -41 72.5 -61.5t113.5 -20.5q68 0 123 24q36 16 63 58h221q-19 -127 -121.5 -204t-286.5 -77q-124 0 -207.5 34.5t-134.5 98.5t-64 148z" />
<glyph unicode="&#x41a;" horiz-adv-x="1270" d="M170 0v1471h283v-506l399 506h337l-514 -656l564 -815h-332l-454 653v-653h-283z" />
<glyph unicode="&#x41b;" horiz-adv-x="1421" d="M2 0l567 1471h284l566 -1471h-299l-407 1081l-414 -1081h-297z" />
<glyph unicode="&#x41c;" horiz-adv-x="1843" d="M56 0l254 1471h274l340 -1026l345 1026h270l248 -1471h-270l-158 929l-313 -929h-247l-309 929l-161 -929h-273z" />
<glyph unicode="&#x41d;" horiz-adv-x="1393" d="M167 0v1471h284v-555h492v555h283v-1471h-283v645h-492v-645h-284z" />
<glyph unicode="&#x41e;" horiz-adv-x="1720" d="M96 736q0 211 102 388t280.5 280.5t384.5 103.5q312 0 536.5 -226t224.5 -551q0 -322 -221.5 -545t-537.5 -223q-331 0 -550 229t-219 544zM378 731q0 -244 175 -386q136 -111 312 -111q199 0 339 144t140 355q0 210 -141 355.5t-343 145.5q-204 0 -343 -142t-139 -361z " />
<glyph unicode="&#x41f;" horiz-adv-x="1393" d="M167 0v1471h1059v-1471h-283v1209h-492v-1209h-284z" />
<glyph unicode="&#x420;" horiz-adv-x="1147" d="M167 0v1471h297q241 0 347.5 -44.5t168 -144t61.5 -238.5q0 -154 -80.5 -256t-218.5 -142q-81 -23 -295 -23v-623h-280zM447 896h89q105 0 146 15t64.5 49.5t23.5 83.5q0 85 -66 124q-48 29 -178 29h-79v-301z" />
<glyph unicode="&#x421;" horiz-adv-x="1597" d="M95 738q0 220 99.5 391t285 275t399.5 104q182 0 350.5 -77t290.5 -219l-196 -187q-200 211 -450 211q-211 0 -355.5 -144t-144.5 -355q0 -147 64 -261t181 -179t260 -65q122 0 223 45.5t222 165.5l190 -198q-163 -159 -308 -220.5t-331 -61.5q-343 0 -561.5 217.5 t-218.5 557.5z" />
<glyph unicode="&#x422;" horiz-adv-x="860" d="M23 1195v276h813v-276h-268v-1195h-284v1195h-261z" />
<glyph unicode="&#x423;" horiz-adv-x="1313" d="M25 180l184 185q110 -128 217 -128q48 0 79 23t74 76l-522 1135h316l346 -820l284 820h288l-392 -1052q-101 -270 -219.5 -361.5t-252.5 -91.5q-218 0 -402 214z" />
<glyph unicode="&#x424;" horiz-adv-x="1544" d="M48 836q0 147 61 248t172.5 149t340.5 48v190h282v-190h62q530 0 530 -437q0 -124 -41.5 -210.5t-122 -143t-166 -74t-262.5 -17.5v-399h-282v399q-185 0 -303.5 37t-194.5 140.5t-76 259.5zM312 837q0 -107 59.5 -148t174.5 -41h76v375h-65q-147 0 -196 -47.5 t-49 -138.5zM904 648h92q142 0 188 53t46 138q0 87 -48.5 135.5t-195.5 48.5h-82v-375z" />
<glyph unicode="&#x425;" horiz-adv-x="1393" d="M41 0l497 759l-466 712h315l308 -471l311 471h315l-468 -712l497 -759h-315l-340 517l-337 -517h-317z" />
<glyph unicode="&#x426;" horiz-adv-x="1536" d="M167 0v1471h284v-1219h492v1219h283v-1219h299v-472h-262v220h-1096z" />
<glyph unicode="&#x427;" horiz-adv-x="1262" d="M74 1179v292h284v-287q0 -150 54 -209t230 -59h170v555h282v-1471h-282v644h-94q-203 0 -299.5 21t-184.5 89.5t-124 166t-36 258.5z" />
<glyph unicode="&#x428;" horiz-adv-x="1976" d="M167 0v1471h284v-1219h393v1219h282v-1219h400v1219h284v-1471h-1643z" />
<glyph unicode="&#x429;" horiz-adv-x="2097" d="M143 0v1471h284v-1219h393v1219h282v-1219h402v1219h282v-1219h300v-472h-262v220h-1681zM1976 0z" />
<glyph unicode="&#x42a;" horiz-adv-x="1337" d="M12 1208v263h608v-555h62q174 0 290 -40t202.5 -155t86.5 -274q0 -149 -75.5 -256.5t-172.5 -149t-260 -41.5h-412v1208h-329zM620 267h71q156 0 225 41.5t69 148.5q0 209 -307 209h-58v-399z" />
<glyph unicode="&#x42b;" horiz-adv-x="1735" d="M167 0v1471h280v-555h61q175 0 291.5 -40.5t201.5 -154t85 -273.5q0 -151 -73 -256t-169.5 -148.5t-264.5 -43.5h-412zM447 267h70q174 0 233 43t59 147q0 209 -304 209h-58v-399zM1290 0v1471h278v-1471h-278z" />
<glyph unicode="&#x42c;" horiz-adv-x="1163" d="M167 0v1471h280v-555h61q175 0 291.5 -40.5t201.5 -154t85 -273.5q0 -151 -73 -256t-169.5 -148.5t-264.5 -43.5h-412zM447 267h70q174 0 233 43t59 147q0 209 -304 209h-58v-399z" />
<glyph unicode="&#x42d;" horiz-adv-x="1597" d="M76 1212l196 -187q195 211 450 211q186 0 325.5 -117t159.5 -268h-564v-255h564q-57 -191 -193 -277.5t-297 -86.5q-241 0 -445 211l-190 -198q172 -170 322 -226t317 -56q351 0 565.5 221.5t214.5 553.5q0 346 -235 558t-549 212q-178 0 -350 -77t-291 -219z" />
<glyph unicode="&#x42e;" horiz-adv-x="2251" d="M167 0v1471h278v-555h190q132 335 332.5 463.5t424.5 128.5q304 0 533 -222.5t229 -554.5q0 -322 -222 -545t-537 -223q-281 0 -508.5 184.5t-251.5 496.5h-190v-644h-278zM908 731q0 -223 146 -360t341 -137q199 0 338.5 145t139.5 354q0 201 -137 351t-346 150 q-197 0 -339.5 -139t-142.5 -364z" />
<glyph unicode="&#x42f;" horiz-adv-x="1202" d="M83 0l333 638q-290 83 -290 386q0 108 30.5 188t87 135.5t131 82t118.5 30.5t245 11h297v-1471h-280v592h-70l-296 -592h-306zM423 1028q0 -91 58 -127t186 -36h88v332h-77q-105 0 -151 -12.5t-75 -54t-29 -102.5z" />
<glyph unicode="&#x430;" horiz-adv-x="1352" d="M88 542q0 252 149 413t362 161q98 0 184 -37t159 -111v120h272v-1088h-272v115q-80 -76 -160.5 -109.5t-174.5 -33.5q-211 0 -365 163.5t-154 406.5zM360 545q0 -141 85.5 -232t210.5 -91q129 0 214 89.5t85 234.5q0 142 -85 230t-215 88q-127 0 -211 -89.5t-84 -229.5z " />
<glyph unicode="&#x431;" horiz-adv-x="1335" d="M85 744q0 245 61 398.5t160.5 230.5t230.5 103t385 37q172 8 256 18v-258q-117 -13 -227 -14q-200 -2 -301 -17.5t-178 -72t-109 -130t-39 -211.5q118 283 405 283q211 0 365.5 -154.5t154.5 -398.5q0 -252 -166 -419t-410 -167q-199 0 -350.5 122t-194.5 290.5 t-43 359.5zM361 10zM380 544q0 -142 83.5 -229.5t211.5 -87.5q126 0 212 87.5t86 229.5q0 136 -81.5 225.5t-215.5 89.5q-128 0 -212 -90t-84 -225z" />
<glyph unicode="&#x432;" horiz-adv-x="1096" d="M138 0v1088h437q215 0 292 -84.5t77 -191.5q0 -159 -158 -229q216 -74 216 -279q0 -111 -57 -183.5t-144.5 -96.5t-244.5 -24h-418zM412 210h137q80 0 112.5 37.5t32.5 73.5q0 53 -36.5 97t-131.5 44h-114v-252zM412 660h105q67 0 103.5 33.5t36.5 74.5q0 61 -35 95 t-83 34l-35 -1h-92v-236z" />
<glyph unicode="&#x433;" horiz-adv-x="819" d="M137 0v1088h635v-260h-361v-828h-274z" />
<glyph unicode="&#x434;" horiz-adv-x="1333" d="M36 -189v420h164l375 857h176l380 -857h167v-420h-260v189h-759v-189h-243zM479 231h362l-178 458z" />
<glyph unicode="&#x435;" d="M87 538q0 249 160.5 413.5t402.5 164.5q257 0 418 -164.5t161 -434.5l-1 -52h-877q19 -116 101.5 -184.5t210.5 -68.5q153 0 263 107l230 -108q-86 -122 -206 -180.5t-285 -58.5q-256 0 -417 161.5t-161 404.5zM363 680h591q-27 91 -106.5 148t-184.5 57q-114 0 -200 -64 q-54 -40 -100 -141z" />
<glyph unicode="&#x436;" horiz-adv-x="1651" d="M-26 0l491 558l-485 530h333l376 -407v407h273v-407l375 407h334l-485 -530l491 -558h-362l-324 384l-29 -34v-350h-273v350l-29 34l-324 -384h-362z" />
<glyph unicode="&#x437;" horiz-adv-x="922" d="M48 96l151 190q97 -72 184 -72q70 0 111 33.5t41 86.5q0 51 -38.5 89t-105.5 38h-71v195h54q55 0 96 26t41 84q0 50 -36.5 82.5t-89.5 32.5q-67 0 -168 -65l-108 188q141 112 314 112q159 0 263.5 -82.5t104.5 -222.5q0 -142 -152 -230q203 -75 203 -271 q0 -146 -114 -242t-315 -96q-221 0 -365 124z" />
<glyph unicode="&#x438;" horiz-adv-x="1229" d="M137 0v1088h266v-639l557 639h131v-1088h-266v626l-543 -626h-145z" />
<glyph unicode="&#x439;" horiz-adv-x="1229" d="M137 0v1088h266v-639l557 639h131v-1088h-266v626l-543 -626h-145zM217 1568h221q26 -41 72.5 -61.5t113.5 -20.5q68 0 123 24q36 16 63 58h221q-19 -127 -121.5 -204t-286.5 -77q-124 0 -207.5 34.5t-134.5 98.5t-64 148z" />
<glyph unicode="&#x43a;" horiz-adv-x="1100" d="M138 0v1088h273v-407l376 407h333l-485 -530l491 -558h-362l-324 384l-29 -34v-350h-273z" />
<glyph unicode="&#x43b;" horiz-adv-x="1116" d="M6 0l464 1088h176l464 -1088h-278l-272 687l-277 -687h-277z" />
<glyph unicode="&#x43c;" horiz-adv-x="1604" d="M13 0l272 1088h180l339 -686l334 686h180l272 -1088h-267l-145 638l-324 -638h-112l-317 638l-146 -638h-266z" />
<glyph unicode="&#x43d;" horiz-adv-x="1229" d="M137 0v1088h274v-392h406v392h274v-1088h-274v451h-406v-451h-274z" />
<glyph unicode="&#x43e;" d="M85 543q0 255 187 425q164 148 377 148q154 0 289.5 -77t211.5 -209t76 -285q0 -154 -76.5 -288t-208.5 -209.5t-291 -75.5q-234 0 -399.5 166.5t-165.5 404.5zM357 544q0 -142 83.5 -230t211.5 -88t213 89t85 229t-83.5 227.5t-213.5 87.5q-127 0 -211.5 -88.5 t-84.5 -226.5z" />
<glyph unicode="&#x43f;" horiz-adv-x="1229" d="M137 0v1088h954v-1088h-274v825h-406v-825h-274z" />
<glyph unicode="&#x440;" horiz-adv-x="1352" d="M138 -398v1486h271v-120q74 74 160 111t184 37q213 0 362 -161t149 -413q0 -243 -154 -406.5t-365 -163.5q-94 0 -175 33.5t-161 109.5v-513h-271zM397 546q0 -145 85 -234.5t214 -89.5q125 0 210.5 91t85.5 232q0 140 -84 229.5t-212 89.5q-129 0 -214 -88t-85 -230z " />
<glyph unicode="&#x441;" d="M85 540q0 158 79 291t220.5 209t316.5 76q162 0 291 -64.5t211 -183.5l-227 -125q-64 67 -126.5 93t-146.5 26q-153 0 -247.5 -91.5t-94.5 -234.5q0 -139 91 -227t239 -88q183 0 285 125l215 -147q-175 -227 -494 -227q-287 0 -449.5 170t-162.5 398z" />
<glyph unicode="&#x442;" horiz-adv-x="1096" d="M41 828v260h1014v-260h-361v-828h-274v828h-379z" />
<glyph unicode="&#x443;" horiz-adv-x="1188" d="M17 1088h279l283 -683l312 683h280l-682 -1486h-282l224 479z" />
<glyph unicode="&#x444;" horiz-adv-x="2064" d="M78 538q0 255 147 414.5t353 159.5q184 0 319 -125v521h271v-521q135 129 319 129q131 0 244 -69t184 -198t71 -307q0 -249 -152.5 -409.5t-353.5 -160.5q-169 0 -312 121v-491h-271v491q-143 -124 -312 -124q-205 0 -356 162.5t-151 406.5zM353 542q0 -140 81 -232 t200 -92q115 0 193 82.5t78 233.5q0 107 -36 175.5t-96.5 109.5t-137.5 41q-132 0 -207 -93.5t-75 -224.5zM1161 533q0 -147 77.5 -230t192.5 -83q119 0 200.5 91.5t81.5 232.5q0 139 -79 228.5t-204 89.5q-108 0 -188.5 -85.5t-80.5 -243.5z" />
<glyph unicode="&#x445;" horiz-adv-x="1147" d="M1 0l412 573l-373 515h317l213 -297l216 297h314l-372 -515l418 -573h-317l-259 357l-256 -357h-313z" />
<glyph unicode="&#x446;" horiz-adv-x="1380" d="M137 0v1088h274v-826h406v826h274v-826h277v-453h-260v191h-971z" />
<glyph unicode="&#x447;" horiz-adv-x="1139" d="M48 799v289h274v-268q0 -143 191 -143l106 1h109v410h274v-1088h-274v432h-219q-222 0 -341.5 85.5t-119.5 281.5z" />
<glyph unicode="&#x448;" horiz-adv-x="1845" d="M137 0v1088h274v-826h374v826h274v-826h375v826h273v-1088h-1570z" />
<glyph unicode="&#x449;" horiz-adv-x="1997" d="M137 0v1088h274v-826h374v826h274v-826h375v826h273v-826h278v-453h-261v191h-1587zM1845 0z" />
<glyph unicode="&#x44a;" horiz-adv-x="1190" d="M21 845v243h536v-392h81q172 0 263 -26.5t154 -110.5t63 -211q0 -126 -57.5 -209.5t-145.5 -111t-248 -27.5h-384v845h-262zM557 210h83q74 0 106.5 10.5t58 40.5t25.5 73q0 140 -161 140h-112v-264z" />
<glyph unicode="&#x44b;" horiz-adv-x="1573" d="M137 0v1088h274v-392h81q171 0 262.5 -26.5t154.5 -110.5t63 -211q0 -126 -57 -209.5t-145.5 -111t-248.5 -27.5h-384zM411 210h83q74 0 107 10.5t58 40.5t25 73q0 140 -160 140h-113v-264zM1162 0v1088h273v-1088h-273z" />
<glyph unicode="&#x44c;" horiz-adv-x="1044" d="M137 0v1088h274v-392h81q171 0 262.5 -26.5t154.5 -110.5t63 -211q0 -126 -57 -209.5t-145.5 -111t-248.5 -27.5h-384zM411 210h83q74 0 107 10.5t58 40.5t25 73q0 140 -160 140h-113v-264z" />
<glyph unicode="&#x44d;" horiz-adv-x="1278" d="M75 868q203 248 502 248q269 0 442.5 -163t173.5 -413q0 -241 -166 -404.5t-447 -163.5q-299 0 -493 227l215 147q100 -129 288 -129q225 0 313 213h-365v237h365q-94 197 -318 197q-157 0 -283 -121zM918 544z" />
<glyph unicode="&#x44e;" horiz-adv-x="1771" d="M137 0v1088h274v-431h145q50 216 209.5 337.5t344.5 121.5q239 0 407.5 -165.5t168.5 -405.5q0 -235 -164 -404t-411 -169q-197 0 -354.5 124.5t-200.5 310.5h-145v-407h-274zM818 545q0 -143 83.5 -230.5t211.5 -87.5q126 0 212 87.5t86 229.5q0 140 -83.5 227.5 t-214.5 87.5q-128 0 -211.5 -90.5t-83.5 -223.5z" />
<glyph unicode="&#x44f;" horiz-adv-x="1067" d="M21 0l302 446q-88 29 -144.5 109.5t-56.5 181.5q0 121 69 212t164.5 115t298.5 24h276v-1088h-274v394h-53l-259 -394h-323zM406 730q0 -131 173 -131h77v261h-95q-155 0 -155 -130z" />
<glyph unicode="&#x451;" d="M87 538q0 249 160.5 413.5t402.5 164.5q257 0 418 -164.5t161 -434.5l-1 -52h-877q19 -116 101.5 -184.5t210.5 -68.5q153 0 263 107l230 -108q-86 -122 -206 -180.5t-285 -58.5q-256 0 -417 161.5t-161 404.5zM291 1430q0 59 42 101t101 42q60 0 102 -42t42 -101 q0 -60 -42 -102t-102 -42q-59 0 -101 42t-42 102zM363 680h591q-27 91 -106.5 148t-184.5 57q-114 0 -200 -64q-54 -40 -100 -141zM734 1430q0 59 42 101t101 42q60 0 102 -42t42 -101q0 -60 -42 -102t-102 -42q-59 0 -101 42t-42 102z" />
<glyph unicode="&#x452;" horiz-adv-x="1229" d="M-18 1225v174h155v109h272v-109h347v-174h-347v-247q152 138 327 138q142 0 256 -95t114 -302v-719q0 -117 -18.5 -221t-97.5 -154.5t-172 -50.5q-87 0 -205 41v215q62 -31 114 -31q59 0 84 39.5t25 141.5v497q0 165 -14 238t-58.5 112t-116.5 39q-84 0 -144 -55 t-77 -128t-17 -246v-437h-272v1225h-155z" />
<glyph unicode="&#x453;" horiz-adv-x="819" d="M137 0v1088h635v-260h-361v-828h-274zM257 1290l239 392h323l-366 -392h-196z" />
<glyph unicode="&#x454;" horiz-adv-x="1278" d="M85 540q0 -241 166 -404.5t447 -163.5q299 0 493 227l-215 147q-100 -129 -288 -129q-225 0 -313 213h365v237h-365q94 197 318 197q157 0 283 -121l227 125q-203 248 -502 248q-269 0 -442.5 -163t-173.5 -413zM360 544z" />
<glyph unicode="&#x455;" horiz-adv-x="901" d="M52 158l168 183q48 -56 112.5 -90.5t114.5 -34.5q54 0 87 26t33 60q0 63 -119 123l-92 46q-264 133 -264 333q0 129 99.5 220.5t254.5 91.5q106 0 199.5 -46.5t158.5 -133.5l-169 -169q-103 102 -187 102q-46 0 -72 -19.5t-26 -48.5q0 -22 16.5 -40.5t81.5 -50.5l100 -50 q158 -78 217 -159t59 -190q0 -145 -106.5 -242t-285.5 -97q-238 0 -380 186z" />
<glyph unicode="&#x456;" horiz-adv-x="491" d="M71 1362q0 72 51 123t123 51t123.5 -52t51.5 -126q0 -73 -51 -124.5t-122 -51.5q-73 0 -124.5 52.5t-51.5 127.5zM108 0v1088h274v-1088h-274z" />
<glyph unicode="&#x457;" horiz-adv-x="491" d="M-119 1430q0 59 42 101t101 42q60 0 102 -42t42 -101q0 -60 -42 -102t-102 -42q-59 0 -101 42t-42 102zM109 0v1088h274v-1088h-274zM324 1430q0 59 42 101t101 42q60 0 102 -42t42 -101q0 -60 -42 -102t-102 -42q-59 0 -101 42t-42 102z" />
<glyph unicode="&#x458;" horiz-adv-x="533" d="M-87 -170q64 -31 113 -31q52 0 78 31t26 114v1144h273v-1124q0 -155 -30.5 -231.5t-96.5 -117.5t-159 -41q-82 0 -204 41v215zM93 1362q0 72 50.5 123t122.5 51q73 0 124.5 -52t51.5 -126q0 -73 -51 -125t-122 -52q-73 0 -124.5 53t-51.5 128z" />
<glyph unicode="&#x459;" horiz-adv-x="1598" d="M6 0l464 1088h176l164 -392h235q162 0 259.5 -30t159 -113.5t61.5 -207.5t-57.5 -207.5t-145.5 -110.5t-247 -27h-243l-272 687l-277 -687h-277zM903 475l110 -265h34q74 0 107 10.5t58.5 40.5t25.5 73q0 141 -161 141h-174zM1101 0z" />
<glyph unicode="&#x45a;" horiz-adv-x="1729" d="M137 0v1088h274v-392h406v392h274v-392h81q205 0 292 -36.5t138 -117.5t51 -195q0 -124 -57 -208t-145.5 -111.5t-248.5 -27.5h-385v451h-406v-451h-274zM1091 210h83q74 0 107 10.5t58.5 40.5t25.5 73q0 140 -161 140h-113v-264z" />
<glyph unicode="&#x45b;" horiz-adv-x="1229" d="M-18 1225v174h155v109h271v-109h348v-174h-348v-247q152 138 328 138q143 0 256.5 -95t113.5 -302v-719h-270v477q0 171 -14.5 242.5t-59.5 109t-117 37.5q-83 0 -143 -55t-77 -128t-17 -246v-437h-271v1225h-155z" />
<glyph unicode="&#x45c;" horiz-adv-x="1100" d="M138 0v1088h273v-407l376 407h333l-485 -530l491 -558h-362l-324 384l-29 -34v-350h-273zM470 1287l239 392h323l-366 -392h-196z" />
<glyph unicode="&#x45e;" horiz-adv-x="1188" d="M17 1088h279l283 -683l312 683h280l-682 -1486h-282l224 479zM205 1568h221q26 -41 72.5 -61.5t113.5 -20.5q68 0 123 24q36 16 63 58h221q-19 -127 -121.5 -204t-286.5 -77q-124 0 -207.5 34.5t-134.5 98.5t-64 148z" />
<glyph unicode="&#x45f;" horiz-adv-x="1229" d="M137 0v1088h274v-826h406v826h274v-1088h-349v-191h-256v191h-349z" />
<glyph unicode="&#x490;" horiz-adv-x="983" d="M167 0v1471h498v212h269v-486h-490v-1197h-277z" />
<glyph unicode="&#x491;" horiz-adv-x="881" d="M138 0v1088h438v160h257v-420h-421v-828h-274z" />
<glyph unicode="&#x2000;" horiz-adv-x="1016" />
<glyph unicode="&#x2001;" horiz-adv-x="2032" />
<glyph unicode="&#x2002;" horiz-adv-x="1016" />
<glyph unicode="&#x2003;" horiz-adv-x="2032" />
<glyph unicode="&#x2004;" horiz-adv-x="677" />
<glyph unicode="&#x2005;" horiz-adv-x="508" />
<glyph unicode="&#x2006;" horiz-adv-x="338" />
<glyph unicode="&#x2007;" horiz-adv-x="338" />
<glyph unicode="&#x2008;" horiz-adv-x="254" />
<glyph unicode="&#x2009;" horiz-adv-x="406" />
<glyph unicode="&#x200a;" horiz-adv-x="112" />
<glyph unicode="&#x2010;" horiz-adv-x="860" d="M176 415v254h508v-254h-508z" />
<glyph unicode="&#x2011;" horiz-adv-x="860" d="M176 415v254h508v-254h-508z" />
<glyph unicode="&#x2012;" horiz-adv-x="860" d="M176 415v254h508v-254h-508z" />
<glyph unicode="&#x2013;" horiz-adv-x="1024" d="M-12 469v242h1048v-242h-1048z" />
<glyph unicode="&#x2014;" horiz-adv-x="2048" d="M-12 469v242h2072v-242h-2072z" />
<glyph unicode="&#x2018;" horiz-adv-x="573" d="M167 947v139q0 131 32.5 226.5t109.5 195.5l98 -77q-37 -54 -54.5 -93t-34.5 -104h101v-287h-252z" />
<glyph unicode="&#x2019;" horiz-adv-x="573" d="M155 1222v286h252v-138q0 -132 -32.5 -227t-109.5 -196l-98 77q37 54 54.5 93.5t34.5 104.5h-101z" />
<glyph unicode="&#x201a;" horiz-adv-x="573" d="M155 0v286h252v-138q0 -132 -32.5 -227t-109.5 -195l-98 76q37 55 54.5 94t34.5 104h-101z" />
<glyph unicode="&#x201c;" horiz-adv-x="983" d="M163 947v139q0 131 32.5 226.5t109.5 195.5l98 -77q-37 -54 -54.5 -93t-34.5 -104h101v-287h-252zM571 947v139q0 131 32 226.5t110 195.5l98 -77q-37 -54 -54.5 -93t-34.5 -104h101v-287h-252z" />
<glyph unicode="&#x201d;" horiz-adv-x="983" d="M160 1222v286h252v-138q0 -132 -32.5 -227t-109.5 -196l-98 77q37 54 54.5 93.5t34.5 104.5h-101zM568 1222v286h252v-138q0 -132 -32.5 -227t-110.5 -196l-97 77q37 54 54.5 93.5t33.5 104.5h-100z" />
<glyph unicode="&#x201e;" horiz-adv-x="983" d="M160 0v286h252v-138q0 -132 -32.5 -227t-109.5 -195l-98 76q37 55 54.5 94t34.5 104h-101zM568 0v286h252v-138q0 -132 -32.5 -227t-110.5 -195l-97 76q37 55 54.5 94t33.5 104h-100z" />
<glyph unicode="&#x2022;" horiz-adv-x="1229" d="M307 746q0 127 90 217t217 90t217 -90t90 -217q0 -128 -90 -218t-217 -90t-217 90t-90 218z" />
<glyph unicode="&#x2026;" horiz-adv-x="2048" d="M184 129q0 65 46 110.5t111 45.5t111 -45.5t46 -110.5t-46 -111t-111 -46t-111 46t-46 111zM867 129q0 65 45.5 110.5t110.5 45.5t111 -45.5t46 -110.5t-46 -111t-111 -46t-110.5 46t-45.5 111zM1549 129q0 65 46 110.5t111 45.5t111 -45.5t46 -110.5t-46 -111t-111 -46 t-111 46t-46 111z" />
<glyph unicode="&#x202f;" horiz-adv-x="406" />
<glyph unicode="&#x2039;" horiz-adv-x="491" d="M27 540l183 548h255l-185 -548l185 -540h-255z" />
<glyph unicode="&#x203a;" horiz-adv-x="491" d="M27 0l185 548l-185 540h255l183 -540l-183 -548h-255z" />
<glyph unicode="&#x205f;" horiz-adv-x="508" />
<glyph unicode="&#x20ac;" horiz-adv-x="1147" d="M10 508l39 164h78q-2 19 -2 65q0 43 2 62h-117l41 164h105q75 254 282.5 399t468.5 145q102 0 203 -30l-61 -263q-77 25 -148 25q-144 0 -265 -73t-185 -203h538l-37 -164h-549q-4 -40 -4 -62q0 -25 4 -65h519l-39 -164h-434q60 -132 182 -204.5t276 -72.5q99 0 203 41 v-282q-92 -27 -207 -27q-273 0 -475 144t-274 401h-144z" />
<glyph unicode="&#x2122;" horiz-adv-x="2048" d="M101 1324v147h708v-147h-262v-693h-182v693h-264zM924 631v840h267l219 -540l230 540h265v-840h-176v691l-275 -691h-88l-266 691v-691h-176z" />
<glyph unicode="&#x25fc;" horiz-adv-x="1090" d="M0 0v1090h1090v-1090h-1090z" />
</font>
</defs>
</svg>
